<svg xmlns:xlink="http://www.w3.org/1999/xhtml" width="1800" height="600">
    <defs>
        <!--<style type="text/css">-->
            <!--g{-->
            <!--transform: perspective(500px) rotate3d(0,1,0,30deg);-->
            <!--}-->
        <!--</style>-->

        <pattern id="p1" width="50" height="50" patternUnits="userSpaceOnUse">
            <rect width="50" height="50" style="fill: black;"/>
            <line x1="-2" y1="2" x2="2" y2="-2" style="stroke-width: 4; stroke-linecap: round; stroke: red;"/>
            <line x1="-2" y1="12" x2="12" y2="-2" style="stroke-width: 4; stroke-linecap: round; stroke: red;"/>
            <line x1="-2" y1="22" x2="22" y2="-2" style="stroke-width: 4; stroke-linecap: round; stroke: red;"/>
            <line x1="-2" y1="32" x2="32" y2="-2" style="stroke-width: 4; stroke-linecap: round; stroke: red;"/>
            <line x1="-2" y1="42" x2="42" y2="-2" style="stroke-width: 4; stroke-linecap: round; stroke: red;"/>
            <line x1="-2" y1="52" x2="52" y2="-2" style="stroke-width: 4; stroke-linecap: round; stroke: red;"/>
            <line x1="-2" y1="62" x2="62" y2="-2" style="stroke-width: 4; stroke-linecap: round; stroke: red;"/>
            <line x1="-2" y1="72" x2="72" y2="-2" style="stroke-width: 4; stroke-linecap: round; stroke: red;"/>
            <line x1="-2" y1="82" x2="82" y2="-2" style="stroke-width: 4; stroke-linecap: round; stroke: red;"/>
            <line x1="-2" y1="92" x2="92" y2="-2" style="stroke-width: 4; stroke-linecap: round; stroke: red;"/>
            <line x1="-2" y1="102" x2="102" y2="-2" style="stroke-width: 4; stroke-linecap: round; stroke: red;"/>
        </pattern>
        <pattern id="p2" width="50" height="50" patternUnits="userSpaceOnUse">
            <rect width="50" height="50" style="fill: black;"/>
            <line x1="-2" y1="48" x2="2" y2="52" style="stroke-width: 3; stroke-linecap: round; stroke: green;"/>
            <line x1="-2" y1="38" x2="12" y2="52" style="stroke-width: 3; stroke-linecap: round; stroke: green;"/>
            <line x1="-2" y1="28" x2="22" y2="52" style="stroke-width: 3; stroke-linecap: round; stroke: green;"/>
            <line x1="-2" y1="18" x2="32" y2="52" style="stroke-width: 3; stroke-linecap: round; stroke: green;"/>
            <line x1="-2" y1="8" x2="42" y2="52" style="stroke-width: 3; stroke-linecap: round; stroke: green;"/>
            <line x1="-2" y1="-2" x2="52" y2="52" style="stroke-width: 3; stroke-linecap: round; stroke: green;"/>
            <line x1="-2" y1="-12" x2="62" y2="52" style="stroke-width: 3; stroke-linecap: round; stroke: green;"/>
            <line x1="-2" y1="-22" x2="72" y2="52" style="stroke-width: 3; stroke-linecap: round; stroke: green;"/>
            <line x1="-2" y1="-32" x2="82" y2="52" style="stroke-width: 3; stroke-linecap: round; stroke: green;"/>
            <line x1="-2" y1="-42" x2="92" y2="52" style="stroke-width: 3; stroke-linecap: round; stroke: green;"/>
            <line x1="-2" y1="-52" x2="102" y2="52" style="stroke-width: 3; stroke-linecap: round; stroke: green;"/>
        </pattern>
    </defs>
    <rect width="600" height="600" style="fill: rgb(136, 136, 204);"/>
    <rect width="400" height="400" class="r" style="fill: url(&quot;#p1&quot;); opacity: 0.8; mix-blend-mode: color;"/>
    <rect width="400" height="400" x="200" y="200" class="r"
          style="fill: url(&quot;#p2&quot;); opacity: 0.8; mix-blend-mode: color;"/>
    <text fill="red" x="20" y="20">lol</text>
    <!--<g style="transform: perspective(500px) rotate3d(0,1,0,30deg);" transform="perspective(500px)">-->
    <!--<text fill="Green" font-size="100" x="200" y="200" >LOS ANGELES</text>-->
    <!--</g>-->

    <g>
        <text fill="Green" font-size="100" x="200" y="200">LOS ANGELES</text>
    </g>
    <!--<image height="200px" width="200px" xlink:href="avatar"></image>-->
</svg>