<?xml version="1.0" encoding="UTF-8" standalone="no"?>
<!-- Created with Inkscape (http://www.inkscape.org/) -->

<svg
   xmlns:dc="http://purl.org/dc/elements/1.1/"
   xmlns:cc="http://creativecommons.org/ns#"
   xmlns:rdf="http://www.w3.org/1999/02/22-rdf-syntax-ns#"
   xmlns:svg="http://www.w3.org/2000/svg"
   xmlns="http://www.w3.org/2000/svg"
   xmlns:sodipodi="http://sodipodi.sourceforge.net/DTD/sodipodi-0.dtd"
   xmlns:inkscape="http://www.inkscape.org/namespaces/inkscape"
   width="600"
   height="300"
   id="svg2"
   version="1.1"
   inkscape:version="0.48+devel r10437 custom"
   sodipodi:docname="envelope_warped2.svg">
  <defs
     id="defs4">
    <inkscape:path-effect
       effect="envelope"
       id="path-effect7927"
       is_visible="true"
       yy="true"
       xx="false"
       bendpath1="m 70,120 c 150,30 300,0 450,100"
       bendpath2="m 467.94922,140.83984 0,29.16016"
       bendpath3="M 100,190 C 215.81657,262.55074 336.38563,-30.90449 480,40"
       bendpath4="m 131.28906,140.83984 0,29.16016"
       bendpath1-nodetypes="cc"
       bendpath3-nodetypes="cc" />
    <inkscape:path-effect
       effect="envelope"
       id="path-effect7745"
       is_visible="true"
       yy="true"
       xx="false"
       bendpath1="m 40,140 c 0,0 70,-120 130,-120 60,0 64.00337,120 130,120 65.99663,0 80,-30 140,-30 60,0 120,80 120,80"
       bendpath2="m 504.21875,136.33734 0,30.25391"
       bendpath3="m 40,230 520,0"
       bendpath4="m 97.851562,136.33734 0,30.25391"
       bendpath3-nodetypes="cc"
       bendpath1-nodetypes="csssc" />
  </defs>
  <sodipodi:namedview
     id="base"
     pagecolor="#ffffff"
     bordercolor="#666666"
     borderopacity="1.0"
     inkscape:pageopacity="0.0"
     inkscape:pageshadow="2"
     inkscape:zoom="1.0366667"
     inkscape:cx="227.33196"
     inkscape:cy="194.43664"
     inkscape:document-units="px"
     inkscape:current-layer="layer1"
     showgrid="true"
     showguides="true"
     inkscape:guide-bbox="true"
     inkscape:window-width="1035"
     inkscape:window-height="877"
     inkscape:window-x="463"
     inkscape:window-y="59"
     inkscape:window-maximized="0">
    <inkscape:grid
       type="xygrid"
       id="grid2985"
       empspacing="5"
       visible="true"
       enabled="true"
       snapvisiblegridlinesonly="true" />
    <sodipodi:guide
       orientation="1,0"
       position="300,0"
       id="guide2987" />
    <sodipodi:guide
       orientation="0,1"
       position="0,150"
       id="guide2991" />
    <sodipodi:guide
       orientation="1,0"
       position="150,0"
       id="guide2993" />
    <sodipodi:guide
       orientation="1,0"
       position="450,0"
       id="guide2995" />
  </sodipodi:namedview>
  <metadata
     id="metadata7">
    <rdf:RDF>
      <cc:Work
         rdf:about="">
        <dc:format>image/svg+xml</dc:format>
        <dc:type
           rdf:resource="http://purl.org/dc/dcmitype/StillImage" />
        <dc:title></dc:title>
      </cc:Work>
    </rdf:RDF>
  </metadata>
  <g
     inkscape:label="Layer 1"
     inkscape:groupmode="layer"
     id="layer1">
    <g
       style="font-size:40px;font-style:normal;font-variant:normal;font-weight:bold;font-stretch:normal;text-align:center;line-height:125%;letter-spacing:0px;word-spacing:0px;text-anchor:middle;fill:#000000;fill-opacity:1;stroke:none;font-family:DejaVu Serif;-inkscape-font-specification:DejaVu Serif Bold"
       id="text7890"
       inkscape:path-effect="#path-effect7927">
      <path
         d="m 142.23496,201.19064 c -2.18035,0.0988 -4.36552,0.10002 -6.54596,0.002 -9.78588,-18.35775 -18.4278,-36.98742 -27.63646,-55.68591 2.43142,11.71579 5.04718,23.43361 7.38588,34.95139 1.22329,6.03303 2.36945,12.00759 3.38079,17.88808 -2.08925,-0.62676 -4.14869,-1.35087 -6.17367,-2.16326 -5.03093,-11.70882 -10.29958,-23.32397 -16.198696,-34.92519 -5.899115,-11.60122 -12.428697,-23.18852 -19.911492,-34.88655 -1.245646,-0.26164 -2.490564,-0.52847 -3.734667,-0.80049 -1.035755,-1.97913 -2.092966,-3.96682 -3.171634,-5.96307 6.273001,1.24987 12.56382,2.39825 18.869876,3.45944 0.868338,2.04116 1.726294,4.07965 2.573868,6.11546 -1.37929,-0.24384 -2.758106,-0.4941 -4.136332,-0.75075 9.201573,15.83192 17.050887,31.55642 24.500887,47.34029 -1.2057,-5.79283 -2.49067,-11.6511 -3.79899,-17.54408 -2.45078,-11.02031 -4.97387,-22.15468 -7.17801,-33.25212 2.53656,0.38346 5.07505,0.75418 7.61536,1.113 8.55174,18.02875 16.61829,35.90832 25.72561,53.37212 -0.56076,-2.51334 -1.10741,-5.02 -1.6353,-7.51931 -2.70058,-12.80936 -4.89054,-25.42243 -6.00361,-37.80736 -1.55195,-0.168 -3.10252,-0.34226 -4.65155,-0.52322 -0.5431,-1.9781 -1.0727,-3.95595 -1.58878,-5.93355 4.14074,0.52697 8.28517,1.02626 12.43259,1.50134 0.39388,1.9057 0.8093,3.81018 1.24623,5.71346 -1.33747,-0.12816 -2.67409,-0.26045 -4.00976,-0.39712 1.42594,18.91874 5.64438,38.42889 10.57711,58.4225 0.67884,2.74973 1.36973,5.50781 2.06671,8.27304 z"
         style=""
         id="path7907"
         inkscape:original-d="m 165.72266,170 -5.03907,0 -6.60156,-21.23047 -6.60156,21.23047 -5.03906,0 -8.32032,-26.79688 -2.83203,0 0,-2.36328 13.82813,0 0,2.36328 -3.125,0 5.5664,17.91016 6.28907,-20.27344 5.54687,0 6.40625,20.60547 5.68359,-18.24219 -3.47656,0 0,-2.36328 9.02344,0 0,2.36328 -2.98828,0 L 165.72266,170 z" />
      <path
         d="m 152.5882,200.01787 c -0.90078,-1.92068 -1.78276,-3.84196 -2.64594,-5.76383 0.99887,-0.15139 1.99559,-0.31942 2.98975,-0.50317 -3.88763,-16.14379 -6.72088,-31.60876 -7.1943,-46.42072 -0.17888,-5.63581 -0.0226,-11.18169 0.52354,-16.64516 2.14847,0.22017 4.29755,0.43498 6.44711,0.64492 3.76109,10.06111 8.17412,19.51364 13.48551,28.16028 5.31139,8.64663 11.52113,16.48737 18.78693,23.3486 0.0157,-0.007 0.0315,-0.015 0.0472,-0.0225 1.04936,-0.50034 2.09378,-1.00973 3.13347,-1.52771 0.90027,1.32521 1.83737,2.64229 2.81129,3.95124 -1.03092,0.58056 -2.06724,1.15203 -3.10919,1.71393 -4.16385,2.24552 -8.42053,4.32941 -12.77448,6.17746 -0.98499,-1.60892 -1.9388,-3.22272 -2.86143,-4.84141 1.13442,-0.42502 2.26346,-0.86504 3.38722,-1.31882 -3.27202,-3.55187 -6.34319,-7.27426 -9.23064,-11.15083 -3.30281,0.84015 -6.62854,1.57943 -9.97837,2.1941 -1.09291,0.19983 -2.18805,0.38734 -3.28497,0.56149 0.96489,4.75155 2.08498,9.57185 3.3201,14.46023 1.44087,-0.32041 2.87527,-0.67201 4.30193,-1.05198 0.90541,1.79421 1.83635,3.58598 2.79283,5.37528 -3.59439,1.09662 -7.2507,1.99862 -10.94754,2.6586 0,0 0,0 0,0 z m -0.55429,-27.06316 c 0.70816,-0.0917 1.41585,-0.18821 2.12297,-0.28923 2.97021,-0.42665 5.92712,-0.94151 8.87142,-1.52983 -5.13679,-7.4822 -9.65421,-15.48128 -13.70474,-23.87956 0.10147,5.15502 0.5102,10.39002 1.17871,15.71111 0.41501,3.29519 0.92981,6.62398 1.53164,9.98751 z"
         style=""
         id="path7909"
         inkscape:original-d="m 173.75,170 0,-2.36328 2.38281,0 10.97656,-26.79688 4.66797,0 10.9961,26.79688 2.77343,0 0,2.36328 -13.65234,0 0,-2.36328 2.85156,0 -2.40234,-5.95703 -10.95703,0 -2.44141,5.95703 3.47656,0 0,2.36328 -8.67187,0 z m 8.59375,-10.68359 9.04297,0 -4.49219,-11.15235 -4.55078,11.15235 z" />
      <path
         d="m 202.38295,154.79312 c 1.46114,-0.16589 2.7944,-0.0407 4.02107,0.33174 1.22667,0.37247 2.46256,1.02279 3.79576,1.89733 3.20853,2.08261 6.79779,3.65036 10.78342,4.67949 1.0501,-0.71371 2.09722,-1.43181 3.14161,-2.15372 0.69981,0.51866 1.44389,1.02381 2.23226,1.51546 -3.27336,2.56376 -6.58027,5.08656 -9.93034,7.54776 -4.82659,-1.55662 -9.18585,-3.73969 -13.10235,-6.51266 -2.3592,-1.75182 -3.93743,-2.97002 -4.9853,-3.38482 -1.04038,-0.43655 -2.21864,-0.48982 -3.54824,-0.11777 -0.47154,0.13195 -0.94339,0.26306 -1.41554,0.3933 2.15778,5.08145 5.1406,9.94599 8.94844,14.59363 1.3726,-0.80679 2.73807,-1.62584 4.09692,-2.45601 0.82034,0.93663 1.68195,1.862 2.58481,2.77612 -3.07358,2.12212 -6.18773,4.18227 -9.34943,6.16546 -2.33835,1.46675 -4.7027,2.8914 -7.09589,4.26789 -0.96966,-1.27632 -1.90207,-2.56106 -2.79721,-3.85424 1.41286,-0.71909 2.8171,-1.45377 4.21323,-2.20291 -9.09702,-12.47874 -14.0932,-25.94082 -14.98856,-40.38626 -1.68,-0.0717 -3.36027,-0.14664 -5.0408,-0.2251 -0.12471,-1.46755 -0.21216,-2.94354 -0.26235,-4.42796 2.9393,0.25065 5.87892,0.4952 8.81854,0.73495 4.73097,0.38582 9.46328,0.76001 14.1963,1.12835 2.3418,0.18225 4.38332,0.59156 6.10753,1.16998 1.7242,0.57842 3.13102,1.32571 4.24578,2.20716 2.2496,1.74757 3.11667,3.85775 3.22628,6.51945 0.0891,2.16263 -0.38944,3.89912 -1.63868,5.50022 -1.23725,1.58389 -3.26322,3.04207 -6.25726,4.29316 z m -10.30865,0.82051 c 1.03442,-0.22277 2.06773,-0.44909 3.10002,-0.67875 2.2064,-0.49085 3.65015,-1.54244 4.48533,-3.03904 0.85109,-1.4997 1.03826,-3.33618 0.75551,-5.70195 -0.28275,-2.36579 -0.92088,-4.19893 -2.22025,-5.55293 -1.28206,-1.35398 -3.13478,-2.14341 -5.59621,-2.22779 -1.1516,-0.0395 -2.30325,-0.08 -3.45495,-0.12158 0.0364,6.02125 1.01329,11.79527 2.93055,17.32204 0,0 0,0 0,0 z"
         style=""
         id="path7911"
         inkscape:original-d="m 226.30859,155.76172 q 1.73828,0.2539 2.92969,1.15234 1.19141,0.89844 2.07031,2.59766 l 4.25782,8.125 2.98828,0 0,2.36328 -9.58985,0 -4.64843,-8.80859 q -1.34766,-2.73438 -2.30469,-3.47657 -0.9375,-0.76172 -2.61719,-0.76172 l -1.19141,0 0,10.6836 3.75,0 0,2.36328 -15,0 0,-2.36328 3.73047,0 0,-24.4336 -3.73047,0 0,-2.36328 16.64063,0 q 5.07812,0 7.83203,2.05078 2.77344,2.03125 2.77344,5.78125 0,3.04688 -1.97266,4.82422 -1.95312,1.75782 -5.91797,2.26563 z m -8.10547,-1.15235 2.5586,0 q 2.73437,0 4.19922,-1.48437 1.48437,-1.48438 1.48437,-4.23828 0,-2.75391 -1.48437,-4.21875 -1.46485,-1.46485 -4.19922,-1.46485 l -2.5586,0 0,11.40625 z" />
      <path
         d="m 228.07404,159.71261 c -0.77472,-0.44815 -1.50492,-0.90998 -2.19063,-1.3855 1.30008,-0.90632 2.59614,-1.81807 3.88872,-2.73411 -6.75415,-3.92202 -8.7041,-9.34518 -5.84985,-16.26946 -1.67853,-0.0446 -3.35705,-0.0891 -5.03557,-0.13388 0.23454,-0.7585 0.51359,-1.53068 0.83714,-2.31655 2.2971,0.17687 4.59412,0.35457 6.89099,0.53373 5.3594,0.41805 10.7182,0.84413 16.07549,1.28672 2.24197,0.18522 4.12287,0.44676 5.62588,0.70539 1.50301,0.25863 2.62806,0.51421 3.41054,0.71233 1.57349,0.39365 1.5166,0.46161 0.52773,0.46882 -0.49692,0.004 -1.11689,0.006 -1.89856,0.10522 -0.78166,0.0992 -1.7251,0.2953 -2.87056,0.64305 -1.1377,0.3454 -2.38937,0.81448 -3.8227,1.38611 -1.43333,0.57164 -3.0483,1.24575 -4.89331,1.95151 -2.03843,0.77976 -4.07995,1.55555 -6.12518,2.32625 0.85987,1.25014 2.49251,2.2532 4.89789,3.00918 1.61262,-1.17729 3.22029,-2.36075 4.82369,-3.5495 0.54191,0.0607 1.13014,0.10636 1.7647,0.1371 -3.6371,3.06147 -7.30009,6.0921 -10.99858,9.08034 -1.67825,1.3559 -3.36374,2.70462 -5.05783,4.04325 z m 4.0795,-13.67739 c 0.85834,-0.25932 1.71616,-0.51935 2.5735,-0.78001 1.99024,-0.6051 3.48867,-1.26124 4.70691,-1.84555 1.23403,-0.59152 2.00707,-1.01845 2.50697,-1.53233 0.49645,-0.51033 0.50569,-0.93799 -0.30396,-1.35893 -0.80356,-0.42606 -2.32156,-0.77574 -4.62119,-0.84019 -0.98304,-0.0276 -1.96618,-0.0548 -2.94943,-0.0818 -1.89114,2.54709 -2.52874,4.69337 -1.9128,6.43884 0,0 0,0 0,0 z"
         style=""
         id="path7913"
         inkscape:original-d="m 240.23437,170 0,-2.36328 3.73047,0 0,-24.4336 -3.73047,0 0,-2.36328 16.60157,0 q 4.86328,0 7.73437,2.32422 2.8711,2.30469 2.8711,6.19141 0,3.90625 -2.89063,6.25 -2.87109,2.32422 -7.71484,2.32422 l -5.35157,0 0,9.70703 4.70704,0 0,2.36328 -15.95704,0 z m 11.25,-14.43359 2.1875,0 q 2.53907,0 4.04297,-1.67969 1.52344,-1.69922 1.52344,-4.53125 0,-2.8125 -1.50391,-4.47266 -1.5039,-1.67969 -4.0625,-1.67969 l -2.1875,0 0,12.36329 z" />
      <path
         d="m 258.05942,134.64487 c -0.5009,0.3454 -0.95407,0.67521 -1.3595,0.98944 1.2554,-0.96096 2.50942,-1.92358 3.76241,-2.88742 -3.80837,4.28347 -2.47799,6.89179 3.99113,7.82496 -1.67329,-0.065 -3.34685,-0.12762 -5.0207,-0.18805 0.58165,-0.008 1.21104,-0.0315 1.88816,-0.0707 10.12732,0.93138 20.24552,1.95702 30.3485,3.13432 1.16797,0.13609 2.33574,0.27422 3.50329,0.41446 0.77242,0.0928 1.54477,0.18652 2.31704,0.28125 -2.87657,-1.955 -5.33141,-4.04162 -7.36451,-6.25983 -0.71577,0.042 -1.43151,0.0848 -2.14722,0.12825 -0.43156,0.0263 -0.86312,0.0527 -1.29468,0.0794 1.18747,1.2217 2.53163,2.39411 4.03248,3.5172 -0.68177,-0.0351 -1.36358,-0.0696 -2.04544,-0.10344 -4.79213,-0.23734 -9.58627,-0.44288 -14.3826,-0.62368 -2.77718,-1.17007 -4.79103,-2.58702 -6.04155,-4.25086 3.06566,-0.68859 6.13086,-1.37171 9.19679,-2.04635 0.62909,0.98654 1.37971,1.93437 2.25187,2.84347 1.12122,-0.12107 2.24246,-0.24081 3.36375,-0.35909 -2.49723,-2.7832 -4.09461,-5.85113 -4.79216,-9.20379 -0.99629,0.43235 -1.99234,0.86549 -2.98821,1.29926 0.21202,1.11944 0.54558,2.20015 1.00068,3.24214 -2.97164,0.90986 -5.94224,1.82672 -8.91328,2.74743 -1.03028,-2.27481 -0.84686,-4.94219 0.55028,-8.00211 3.6129,-2.74479 7.22306,-5.49215 10.83857,-8.23166 0.6393,-0.48449 1.27873,-0.96882 1.91834,-1.45293 -0.26923,1.70021 -0.38168,3.35115 -0.33736,4.95281 0.22809,-0.1325 0.45619,-0.26497 0.68432,-0.39739 0.72153,-0.41888 1.44328,-0.8374 2.16528,-1.2555 -0.153,-2.83636 0.11596,-5.80424 0.8069,-8.90365 -0.66228,0.58057 -1.32429,1.16143 -1.98608,1.7425 -0.82737,0.72646 -1.65439,1.45325 -2.48118,2.18024 -7.15202,6.28866 -14.28144,12.60601 -21.46532,18.85924 0,0 0,0 0,0 z"
         style=""
         id="path7915"
         inkscape:original-d="m 270.3125,170 0,-2.36328 3.73047,0 0,-24.4336 -3.73047,0 0,-2.36328 26.21094,0 0,6.875 -2.69532,0 0,-4.19922 -12.26562,0 0,9.35547 7.63672,0 0,-3.71093 2.67578,0 0,10.07812 -2.67578,0 0,-3.71094 -7.63672,0 0,11.79688 12.63672,0 0,-4.19922 2.67578,0 0,6.875 -26.5625,0 z" />
      <path
         d="m 298.67901,103.41723 c 0.92037,-0.68939 1.84188,-1.3773 2.76464,-2.06358 1.55341,-1.1553 2.91037,-1.671158 4.12818,-1.472681 1.21781,0.198481 2.29635,1.111221 3.33036,2.734501 1.04092,1.61908 2.07796,4.02571 3.28349,7.14731 1.20552,3.12159 2.57964,6.95839 4.35498,11.34952 1.76448,4.36426 3.4447,8.08739 4.74895,11.15037 1.30425,3.06299 2.23244,5.46558 2.59693,7.23443 0.37306,1.78085 0.20065,3.00374 -0.5985,3.72082 -0.79916,0.71709 -2.2252,0.92855 -4.27507,0.73978 -1.21248,-0.11165 -2.42524,-0.22042 -3.63826,-0.32638 -11.00126,-11.81784 -16.5665,-25.22254 -16.6957,-40.21409 0,0 0,0 0,0 z m -10.94284,5.16985 c -0.1997,1.17038 -0.34926,2.32533 -0.44868,3.46487 1.2545,-0.96027 2.51023,-1.91903 3.76749,-2.87584 -0.64222,12.84396 4.10281,24.05644 14.23511,33.63743 -1.66845,-0.12517 -3.33724,-0.24551 -5.00629,-0.36123 0.93744,0.82073 1.92503,1.62604 2.96275,2.41593 6.86656,0.88774 13.72473,1.85766 20.56764,2.92308 3.59119,0.55914 6.26481,0.58572 7.9969,-0.16173 1.7321,-0.74746 2.52317,-2.26967 2.49615,-4.69956 -0.027,-2.42989 -0.86574,-5.69483 -2.27653,-9.77233 -1.4108,-4.07751 -3.39364,-8.96685 -5.59498,-14.53268 -2.21354,-5.59667 -4.11912,-10.54277 -5.93689,-14.55933 -1.81777,-4.01656 -3.5479,-7.104193 -5.37146,-9.127135 -1.81486,-2.011974 -3.67195,-2.904671 -5.73642,-2.710329 -2.06448,0.194341 -4.33595,1.47609 -6.92464,3.668711 -4.94498,4.188403 -9.84778,8.427883 -14.73015,12.690143 0,0 0,0 0,0 z"
         style=""
         id="path7917"
         inkscape:original-d="m 311.95312,167.63672 2.71485,0 q 4.57031,0 6.67969,-2.92969 2.1289,-2.92969 2.1289,-9.31641 0,-6.34765 -2.10937,-9.25781 -2.10938,-2.92969 -6.69922,-2.92969 l -2.71485,0 0,24.4336 z m -11.25,2.36328 0,-2.36328 3.73047,0 0,-24.4336 -3.73047,0 0,-2.36328 14.96094,0 q 7.85156,0 12.01172,3.75 4.16016,3.75 4.16016,10.80078 0,7.08985 -4.17969,10.85938 -4.16016,3.75 -11.99219,3.75 l -14.96094,0 z" />
      <path
         d="m 342.39419,64.688675 c 0.29294,2.649628 0.6377,5.289489 1.03426,7.919583 1.40545,-0.855297 2.81735,-1.700942 4.23604,-2.535926 4.35714,27.917767 14.09335,54.890308 29.20862,80.917638 -3.51704,-0.63848 -7.0386,-1.23908 -10.56404,-1.8045 -2.77582,-4.4933 -5.35414,-9.0264 -7.73496,-13.59932 -1.14006,-0.0305 -2.27968,-0.0571 -3.41884,-0.0801 3.69679,6.97915 7.88725,13.85479 12.57137,20.62691 13.03264,2.97246 25.95218,6.40845 38.70907,10.40295 -5.2077,-9.55355 -9.94086,-19.15737 -14.19948,-28.81146 -1.1325,-0.11785 -2.26452,-0.2306 -3.39608,-0.33838 2.6716,5.95558 5.53444,11.88875 8.58852,17.79952 -3.52259,-0.80259 -7.05104,-1.5614 -10.58468,-2.2792 -15.5844,-28.40752 -25.84453,-57.607656 -30.78041,-87.60041 1.45387,-0.793451 2.91528,-1.574146 4.38459,-2.341061 -0.51126,-3.041666 -0.97178,-6.090131 -1.38156,-9.145395 -5.68021,3.422176 -11.22967,7.067486 -16.67242,10.869141 0,0 0,0 0,0 z"
         style=""
         id="path7919"
         inkscape:original-d="m 354.66797,170 0,-2.36328 3.86719,0 0,-24.1211 -7.98829,0 0,4.60938 -2.67578,0 0,-7.28516 28.90625,0 0,7.28516 -2.63672,0 0,-4.60938 -8.04687,0 0,24.1211 3.88672,0 0,2.36328 -15.3125,0 z" />
      <path
         d="m 369.31662,47.979732 c 0.47209,3.287264 0.9938,6.569778 1.56515,9.847544 1.44737,-0.669203 2.90286,-1.323506 4.36677,-1.962024 6.14099,34.865645 17.52623,69.322438 34.15574,103.370388 -1.62745,-0.43194 -3.25669,-0.85401 -4.88765,-1.26624 1.5975,3.17957 3.24461,6.35439 4.94136,9.52446 2.70282,0.86724 5.39722,1.76033 8.08268,2.67909 8.78244,3.00476 17.46861,6.28348 26.04086,9.82901 -4.90746,-11.48942 -9.45323,-22.96186 -13.63729,-34.41734 -1.17299,-0.26538 -2.34547,-0.5237 -3.51739,-0.7751 2.56211,6.87053 5.26242,13.7452 8.10093,20.62398 -5.29544,-1.73536 -10.61025,-3.35394 -15.94042,-4.86 -6.36525,-13.9337 -11.98549,-27.89687 -16.86072,-41.88951 3.26878,0.0744 6.55578,0.20709 9.86002,0.40423 1.95744,5.87391 4.02676,11.74806 6.20797,17.62248 1.16119,0.18166 2.32347,0.37026 3.48678,0.56598 -5.92422,-16.26142 -11.0396,-32.50831 -15.34614,-48.74069 -1.14884,0.0966 -2.29425,0.203159 -3.43617,0.319272 1.5735,5.873042 3.2589,11.746338 5.05617,17.619888 -3.28974,0.0269 -6.55708,0.12371 -9.80106,0.28314 -5.61403,-17.665273 -10.04348,-35.377399 -13.28835,-53.136379 5.09138,-1.881614 10.28446,-3.540977 15.57493,-4.916059 1.27468,6.84676 2.68712,13.697946 4.23733,20.553558 1.1411,-0.183012 2.28617,-0.354543 3.43518,-0.514101 -2.56617,-11.40261 -4.77183,-22.787477 -6.61698,-34.154602 -8.49273,2.519295 -16.72585,5.8661 -24.68115,9.751271 -2.39053,1.167505 -4.7562,2.381522 -7.09855,3.637754 0,0 0,0 0,0 z"
         style=""
         id="path7921"
         inkscape:original-d="m 379.0625,170 0,-2.36328 3.73047,0 0,-24.4336 -3.73047,0 0,-2.36328 26.21094,0 0,6.875 -2.69532,0 0,-4.19922 -12.26562,0 0,9.35547 7.63672,0 0,-3.71093 2.67578,0 0,10.07812 -2.67578,0 0,-3.71094 -7.63672,0 0,11.79688 12.63672,0 0,-4.19922 2.67578,0 0,6.875 -26.5625,0 z" />
      <path
         d="M 433.54048,90.863983 C 426.86009,74.634406 420.69685,59.00591 415.2014,43.97515 c 1.55028,-0.225414 3.10624,-0.422048 4.66696,-0.588474 -0.78361,-4.177394 -1.53081,-8.349716 -2.24161,-12.516965 -4.44022,0.674382 -8.84112,1.611644 -13.17928,2.77459 0.65007,3.963315 1.34162,7.929415 2.07463,11.898299 1.52571,-0.328609 3.0588,-0.63112 4.59838,-0.906107 6.83163,18.495085 14.7633,37.944677 23.49922,58.364517 2.27077,23.3875 5.73078,46.03422 10.70415,67.53959 -1.14806,-0.42148 -2.29733,-0.83716 -3.44773,-1.24707 1.5926,4.01253 3.22691,8.02772 4.90291,12.04555 6.1681,2.60758 12.27571,5.35329 18.31647,8.23445 -1.58058,-4.3745 -3.12679,-8.74328 -4.63861,-13.10632 -1.35993,-0.56677 -2.72203,-1.125 -4.08617,-1.67473 -2.91965,-13.92804 -5.28038,-28.21492 -7.17247,-42.76603 1.76946,4.07162 3.56096,8.17656 5.37201,12.31438 5.21637,11.91582 10.59144,24.10581 16.06713,36.55192 -1.42948,-0.64813 -2.86237,-1.28627 -4.29848,-1.91438 1.47652,4.45931 2.98462,8.92508 4.5243,13.39731 4.20301,2.0795 8.37254,4.22492 12.50648,6.4355 -1.44064,-4.65176 -2.85617,-9.29623 -4.24658,-13.9334 -1.49653,-0.7274 -2.99728,-1.44364 -4.50204,-2.14871 -9.31496,-21.70026 -18.383,-42.67278 -26.90731,-62.82246 -2.81002,-25.008041 -4.36341,-50.682553 -5.28062,-76.68556 1.20769,0.115173 2.41402,0.250559 3.61829,0.406229 -0.87804,-4.508276 -1.73194,-9.009222 -2.56172,-13.502839 -5.36973,-0.526197 -10.78152,-0.621139 -16.16583,-0.291988 -0.92,0.05626 -1.83906,0.124705 -2.75698,0.205029 0.74273,4.264038 1.51881,8.534098 2.32823,12.81018 0.92942,-0.0431 1.86003,-0.07491 2.79165,-0.09514 0.49097,-0.01055 0.98212,-0.0178 1.47341,-0.02175 0.0735,2.969022 0.15811,5.931426 0.25472,8.886681 0.43411,13.24617 1.11534,26.348177 2.12557,39.246526 0,0 0,0 0,0 z"
         style=""
         id="path7923"
         inkscape:original-d="m 421.13281,158.76953 -6.07422,8.86719 3.59375,0 0,2.36328 -10.35156,0 0,-2.36328 3.59375,0 7.67578,-11.15235 -9.12109,-13.28125 -2.67578,0 0,-2.36328 14.49218,0 0,2.36328 -3.20312,0 5.64453,8.20313 5.58594,-8.20313 -3.39844,0 0,-2.36328 10.15625,0 0,2.36328 -3.59375,0 -7.20703,10.46875 9.57031,13.96485 2.75391,0 0,2.36328 -14.55078,0 0,-2.36328 3.24218,0 -6.13281,-8.86719 z" />
      <path
         d="m 452.85091,31.491021 c 0.87275,4.590561 1.76489,9.1883 2.67645,13.793217 0.21729,0.04812 0.43446,0.09692 0.65149,0.146402 1.44967,0.331116 2.89219,0.692235 4.32678,1.082248 9.48512,47.473147 20.73582,95.661012 33.7521,144.563582 -1.37237,-0.74973 -2.74986,-1.48983 -4.13232,-2.22016 -1.9011,-1.0034 -3.81017,-1.98775 -5.7267,-2.95303 -2.62031,-9.16954 -5.15656,-18.31119 -7.60876,-27.42497 -1.14757,-0.48999 -2.29759,-0.97056 -3.44987,-1.44172 3.92627,14.29127 8.07899,28.65225 12.45816,43.08294 2.96141,1.60732 5.90421,3.24822 8.82763,4.92241 8.65221,4.9547 17.13654,10.20183 25.43197,15.73567 -3.60813,-15.14731 -7.14776,-30.25516 -10.61888,-45.32355 -1.0499,-0.64824 -2.10469,-1.28903 -3.16423,-1.92221 2.21392,9.51163 4.45991,19.041 6.73796,28.58812 -3.16166,-2.00058 -6.35659,-3.9495 -9.58276,-5.84499 -12.43407,-49.52505 -23.56146,-98.427646 -33.38217,-146.707787 1.61197,0.59423 3.21105,1.223713 4.79604,1.886736 -0.97855,-4.765553 -1.94662,-9.525717 -2.90421,-14.280492 -5.9695,-2.395826 -12.1416,-4.281666 -18.44531,-5.554731 -0.21432,-0.04328 -0.42878,-0.08584 -0.64337,-0.127685 0,0 0,0 0,0 z"
         style=""
         id="path7925"
         inkscape:original-d="m 445.83984,170 0,-2.36328 3.86719,0 0,-24.1211 -7.98828,0 0,4.60938 -2.67578,0 0,-7.28516 28.90625,0 0,7.28516 -2.63672,0 0,-4.60938 -8.04688,0 0,24.1211 3.88672,0 0,2.36328 -15.3125,0 z" />
    </g>
    <path
       style="fill:none;stroke:#ff0000"
       d="m 70,120 c 150,30 300,0 450,100"
       id="path7902"
       inkscape:connector-curvature="0"
       sodipodi:nodetypes="cc" />
    <path
       style="fill:none;stroke:#ff0000"
       d="M 100,190 C 215.81657,262.55074 336.38563,-30.90449 480,40"
       id="path7904"
       inkscape:connector-curvature="0"
       sodipodi:nodetypes="cc" />
  </g>
</svg>
