<?xml version="1.0" encoding="UTF-8" standalone="no"?>
<!-- Created with Inkscape (http://www.inkscape.org/) -->

<svg
   xmlns:dc="http://purl.org/dc/elements/1.1/"
   xmlns:cc="http://creativecommons.org/ns#"
   xmlns:rdf="http://www.w3.org/1999/02/22-rdf-syntax-ns#"
   xmlns:svg="http://www.w3.org/2000/svg"
   xmlns="http://www.w3.org/2000/svg"
   xmlns:sodipodi="http://sodipodi.sourceforge.net/DTD/sodipodi-0.dtd"
   xmlns:inkscape="http://www.inkscape.org/namespaces/inkscape"
   width="600"
   height="300"
   id="svg2"
   version="1.1"
   inkscape:version="0.48+devel r10437 custom"
   sodipodi:docname="envelope_coaster.svg">
  <defs
     id="defs4">
    <inkscape:path-effect
       effect="envelope"
       id="path-effect7745"
       is_visible="true"
       yy="true"
       xx="false"
       bendpath1="m 40,140 c 0,0 70,-120 130,-120 60,0 64.00337,120 130,120 65.99663,0 80,-30 140,-30 60,0 120,80 120,80"
       bendpath2="m 504.21875,136.33734 0,30.25391"
       bendpath3="m 40,230 520,0"
       bendpath4="m 97.851562,136.33734 0,30.25391"
       bendpath3-nodetypes="cc"
       bendpath1-nodetypes="csssc" />
  </defs>
  <sodipodi:namedview
     id="base"
     pagecolor="#ffffff"
     bordercolor="#666666"
     borderopacity="1.0"
     inkscape:pageopacity="0.0"
     inkscape:pageshadow="2"
     inkscape:zoom="1.0366667"
     inkscape:cx="334.87475"
     inkscape:cy="194.43664"
     inkscape:document-units="px"
     inkscape:current-layer="layer1"
     showgrid="true"
     showguides="true"
     inkscape:guide-bbox="true"
     inkscape:window-width="1035"
     inkscape:window-height="877"
     inkscape:window-x="463"
     inkscape:window-y="59"
     inkscape:window-maximized="0">
    <inkscape:grid
       type="xygrid"
       id="grid2985"
       empspacing="5"
       visible="true"
       enabled="true"
       snapvisiblegridlinesonly="true" />
    <sodipodi:guide
       orientation="1,0"
       position="300,0"
       id="guide2987" />
    <sodipodi:guide
       orientation="0,1"
       position="0,150"
       id="guide2991" />
    <sodipodi:guide
       orientation="1,0"
       position="150,0"
       id="guide2993" />
    <sodipodi:guide
       orientation="1,0"
       position="450,0"
       id="guide2995" />
  </sodipodi:namedview>
  <metadata
     id="metadata7">
    <rdf:RDF>
      <cc:Work
         rdf:about="">
        <dc:format>image/svg+xml</dc:format>
        <dc:type
           rdf:resource="http://purl.org/dc/dcmitype/StillImage" />
        <dc:title></dc:title>
      </cc:Work>
    </rdf:RDF>
  </metadata>
  <g
     inkscape:label="Layer 1"
     inkscape:groupmode="layer"
     id="layer1">
    <path
       style="fill:#ffffff;stroke:#000000"
       d="m 40,170 c 0,0 70,-120 130,-120 60,0 64.00337,120 130,120 65.99663,0 80,-30 140,-30 60,0 120,80 120,80"
       id="path3195"
       inkscape:connector-curvature="0"
       sodipodi:nodetypes="czzzc" />
    <path
       sodipodi:nodetypes="cc"
       inkscape:connector-curvature="0"
       id="path3197"
       d="m 40,260 520,0"
       style="fill:#ffffff;stroke:#000000" />
    <g
       style="font-size:40px;font-style:normal;font-variant:normal;font-weight:bold;font-stretch:normal;text-align:center;line-height:125%;letter-spacing:0px;word-spacing:0px;text-anchor:middle;fill:#000000;fill-opacity:1;stroke:none;font-family:DejaVu Serif;-inkscape-font-specification:DejaVu Serif Bold"
       id="text7687"
       inkscape:path-effect="#path-effect7745"
       transform="translate(0,30)">
      <path
         d="m 67.100654,169.28567 c 1.306189,-0.093 2.478523,0.79204 3.488133,2.72841 1.009611,1.93639 1.955932,5.08473 2.735636,9.53708 1.885175,10.63601 3.31497,22.07784 4.298079,34.29259 1.237392,-0.12504 2.475325,-0.2495 3.713816,-0.37337 -0.19907,3.70124 -0.447335,7.42706 -0.744794,11.17745 -4.063536,0.0906 -8.125782,0.18267 -12.186848,0.27597 -0.507557,-12.77868 -1.536253,-24.62603 -3.09583,-35.50205 -0.894855,-6.77817 -1.867947,-10.67712 -2.616256,-12.15733 -0.421969,-0.88185 -0.929354,-1.3883 -1.515273,-1.53141 -0.434398,-0.10626 -0.912059,-0.0129 -1.433557,0.27237 -0.434299,0.23759 -0.86808,0.47534 -1.301327,0.71323 0.272894,12.55116 -0.50582,25.67022 -2.336145,39.3572 1.024552,-0.10838 2.049669,-0.2167 3.075315,-0.32499 0.520675,-0.055 1.041434,-0.10992 1.562278,-0.16476 -0.364002,3.15423 -0.77908,6.33568 -1.245236,9.54433 -0.534447,0.0125 -1.068875,0.025 -1.603284,0.0376 0,0 0,0 -1e-6,0 -4.203364,0.0986 -8.404758,0.19736 -12.603661,0.29639 -1.159556,0.0274 -2.318575,0.0541 -3.476954,0.0804 -1e-6,0 -1e-6,0 -1e-6,0 -0.303672,0.007 -0.607115,0.0134 -0.910314,0.0196 -0.07777,0.002 -0.155485,0.003 -0.233132,0.005 -0.01973,3.8e-4 -0.03945,7.5e-4 -0.05917,0.001 -0.04778,5.7e-4 -0.09553,0.001 -0.143244,0.002 0.650177,-2.71279 1.24724,-5.39512 1.791188,-8.04698 0.04492,-0.002 0.08999,-0.005 0.13516,-0.007 0.01891,-0.002 0.03783,-0.003 0.05677,-0.005 0.07455,-0.007 0.14936,-0.0137 0.224422,-0.0212 0,0 0,0 0,0 0.291886,-0.0276 0.584759,-0.0565 0.878556,-0.0869 1.089659,-0.11257 2.181826,-0.22706 3.276095,-0.34368 5.096075,-28.66776 4.598455,-54.21853 -1.492859,-76.65231 -0.791172,1.11147 -1.575209,2.22425 -2.348466,3.34041 -0.208489,0.30094 -0.415522,0.60097 -0.620535,0.90042 0,0 0,0 0,0 -0.05277,0.0771 -0.105244,0.15393 -0.157338,0.23045 -0.01323,0.0194 -0.02645,0.0389 -0.03962,0.0583 -0.02472,0.0347 -0.0493,0.0693 -0.0733,0.104 -0.554337,-2.02196 -1.161789,-4.01346 -1.822355,-5.97449 0.02274,-0.0392 0.04604,-0.0781 0.06941,-0.11692 0.01288,-0.0216 0.02579,-0.0431 0.0387,-0.0647 0.05085,-0.0848 0.101897,-0.16965 0.153071,-0.25445 0,0 0,0 0,0 0.199522,-0.33066 0.40052,-0.66072 0.602381,-0.99053 0.770016,-1.2581 1.551114,-2.51004 2.338987,-3.75827 2.852995,-4.52001 5.792721,-8.9868 8.797066,-13.41095 0,0 0,0 0,0 0.878305,-1.29335 1.762014,-2.58316 2.651255,-3.86923 1.555415,-2.24952 3.128508,-3.66316 4.71461,-4.14653 1.586103,-0.48337 3.184933,-0.0366 4.753412,1.3936 1.568334,1.39806 3.042426,3.72148 4.352577,6.95668 1.31015,3.23519 2.456538,7.38201 3.342547,12.38704 1.439763,8.13315 1.574308,15.31356 0.666105,21.07393 -0.899761,5.69809 -2.852018,10.01613 -5.656079,13.01851 z m -8.989655,1.25458 c 0.879658,-0.58408 1.761992,-1.16727 2.646815,-1.74965 0.02533,-0.0167 0.05066,-0.0333 0.07599,-0.05 1.946506,-1.28069 3.344087,-4.06192 4.011833,-8.48271 0.681522,-4.43067 0.578975,-10.17968 -0.554271,-16.90035 -1.133247,-6.72066 -2.75727,-11.23416 -4.523039,-13.4894 -1.753221,-2.27017 -3.526147,-2.16442 -5.228597,0.0693 -0.02215,0.0291 -0.04431,0.0581 -0.06645,0.0872 -0.774005,1.01609 -1.544188,2.03446 -2.310228,3.05525 3.181338,11.83942 5.16399,24.32619 5.947954,37.4603 z"
         id="path7719"
         inkscape:original-d="m 117.20703,151.78656 q 1.73828,0.25391 2.92969,1.15234 1.19141,0.89844 2.07031,2.59766 l 4.25781,8.125 2.98828,0 0,2.36328 -9.58984,0 -4.64844,-8.80859 q -1.34765,-2.73438 -2.30468,-3.47656 -0.9375,-0.76172 -2.61719,-0.76172 l -1.19141,0 0,10.68359 3.75,0 0,2.36328 -14.999998,0 0,-2.36328 3.730468,0 0,-24.43359 -3.730468,0 0,-2.36328 16.640628,0 q 5.07812,0 7.83203,2.05078 2.77344,2.03125 2.77344,5.78125 0,3.04687 -1.97266,4.82422 -1.95312,1.75781 -5.91797,2.26562 z m -8.10547,-1.15234 2.5586,0 q 2.73437,0 4.19922,-1.48438 1.48437,-1.48437 1.48437,-4.23828 0,-2.75391 -1.48437,-4.21875 -1.46485,-1.46484 -4.19922,-1.46484 l -2.5586,0 0,11.40625 z"
         inkscape:connector-curvature="0" />
      <path
         d="m 102.74219,216.44452 c 1.56152,-0.11813 2.95335,-1.64066 4.12486,-4.6366 1.17152,-2.99594 2.1227,-7.46495 2.75759,-13.39276 0.63489,-5.92782 0.96274,-13.39755 0.82947,-22.31498 -0.13328,-8.91742 -0.72721,-19.28311 -1.99444,-30.91381 -1.27106,-11.66583 -2.8897,-21.5904 -4.61514,-29.78353 -1.72543,-8.19313 -3.55819,-14.65429 -5.331523,-19.421474 -1.773331,-4.767163 -3.514027,-7.915093 -5.128076,-9.506769 -1.614049,-1.591676 -3.100948,-1.627003 -4.432611,-0.208817 -1.453684,1.548134 -2.30898,4.415643 -2.639452,8.492421 -0.270665,3.352996 -0.186965,7.527239 0.169757,12.534409 0.395714,5.51046 1.129932,12.07779 2.036822,19.81077 0.90689,7.73298 1.98619,16.63202 3.018474,26.90232 1.029147,10.23909 1.755047,19.26786 2.430112,27.06459 0.675064,7.79672 1.299625,14.36106 2.046903,19.64162 0.681655,4.7351 1.468012,8.4432 2.427776,11.07049 1.16835,3.19374 2.594888,4.79108 4.299478,4.66212 0,0 0,0 0,0 z m -0.37993,12.8124 c -1.58077,0.006 -3.055979,-0.451 -4.420708,-1.33806 0,0 0,0 0,0 -2.026033,-1.31719 -3.805744,-3.58097 -5.356241,-6.69613 -1.550496,-3.11517 -2.871611,-7.08161 -4.025,-11.82468 -1.541791,-6.34027 -2.690768,-13.67783 -3.669975,-22.01936 -0.979208,-8.34153 -1.78957,-17.68635 -2.746403,-28.15167 -0.956833,-10.46532 -1.859777,-19.81944 -2.503252,-28.44 -0.643476,-8.62057 -1.02716,-16.50875 -0.960778,-23.86789 0.04967,-5.52762 0.348874,-10.502844 0.987335,-14.913062 0.638461,-4.410218 1.616338,-8.255296 2.99615,-11.458515 0,-10e-7 10e-7,-10e-7 10e-7,-2e-6 0.932131,-2.163794 2.04641,-4.034883 3.355707,-5.572837 2.599805,-3.053839 5.413314,-4.138264 8.38325,-2.992768 2.969936,1.145496 6.093544,4.520461 9.203584,10.269734 3.11005,5.749269 6.01707,13.529799 8.53007,23.27404 2.513,9.74424 4.63417,21.45055 6.12138,34.97333 1.4831,13.48553 2.01075,25.85343 1.77219,36.80465 -0.23856,10.95122 -1.24485,20.48791 -2.87698,28.45292 -1.62404,7.96406 -3.77122,13.87227 -6.2806,17.75365 -2.50938,3.88138 -5.38055,5.73405 -8.50973,5.74665 z"
         id="path7721"
         inkscape:original-d="m 146.66016,164.22797 q 3.73046,0 5.54687,-3.14453 1.81641,-3.14454 1.81641,-9.60938 0,-6.48437 -1.81641,-9.62891 -1.81641,-3.14453 -5.54687,-3.14453 -3.71094,0 -5.54688,3.1836 -1.81641,3.16406 -1.81641,9.58984 0,6.40625 1.81641,9.58984 1.83594,3.16407 5.54688,3.16407 z m 0,2.36328 q -7.36329,0 -11.54297,-4.02344 -4.17969,-4.02344 -4.17969,-11.09375 0,-7.07031 4.17969,-11.09375 4.19922,-4.04297 11.54297,-4.04297 7.36328,0 11.54296,4.02344 4.17969,4.02344 4.17969,11.11328 0,7.07031 -4.19922,11.09375 -4.17968,4.02344 -11.52343,4.02344 z"
         inkscape:connector-curvature="0" />
      <path
         d="m 127.07246,225.69623 c 0.013,-4.81943 -0.016,-9.62213 -0.0872,-14.40811 1.56104,-0.12397 3.12298,-0.24535 4.68593,-0.36393 -0.95171,-50.46353 -6.26826,-99.26111 -15.94964,-146.392743 -1.5009,1.2054 -2.98503,2.431563 -4.45347,3.676595 -0.94227,-4.440075 -1.92667,-8.863423 -2.95319,-13.270042 5.27116,-4.886923 10.77062,-9.517471 16.55231,-13.797393 0.71657,-0.530398 1.4377,-1.05523 2.16352,-1.573748 0.96296,4.876283 1.88983,9.764214 2.78061,14.663793 -0.71405,0.469729 -1.42438,0.945384 -2.13112,1.426276 -0.89585,0.609997 -1.78552,1.22809 -2.66921,1.853943 9.29977,48.881259 14.65711,99.123209 16.072,150.725839 0.87949,-0.066 1.75943,-0.13094 2.63983,-0.19468 3.94166,-0.28173 7.8731,-0.53821 11.79717,-0.75399 -0.36863,-10.30553 -0.8547,-20.5794 -1.45823,-30.82161 1.08548,-0.15122 2.17045,-0.29501 3.25506,-0.43055 0.96608,16.3316 1.66063,32.73062 2.08364,49.19704 -5.10307,0.0491 -10.2093,0.11383 -15.31995,0.1873 -5.67259,0.0828 -11.34151,0.17553 -17.00804,0.27601 0,0 0,0 0,0 z"
         id="path7723"
         inkscape:original-d="m 165.97656,166.02484 0,-2.36328 3.73047,0 0,-24.43359 -3.73047,0 0,-2.36328 15,0 0,2.36328 -3.75,0 0,24.12109 11.48438,0 0,-4.60937 2.63672,0 0,7.28515 -25.3711,0 z"
         inkscape:connector-curvature="0" />
      <path
         d="m 162.90591,225.20168 c -0.15717,-5.37706 -0.34024,-10.74837 -0.54919,-16.11392 0.65361,-0.0247 1.30707,-0.048 1.96039,-0.0701 0.90385,-0.0282 1.8062,-0.0553 2.70689,-0.0808 -2.38584,-55.9008 -7.08493,-111.39556 -14.09728,-166.48428 -1.04927,0.360967 -2.09146,0.745042 -3.12525,1.149056 -0.74708,0.293261 -1.48983,0.597293 -2.22836,0.911514 -0.74432,-5.246505 -1.51453,-10.487252 -2.31062,-15.722243 0.76495,-0.351006 1.53508,-0.691057 2.3105,-1.019518 6.65964,-2.819285 13.75879,-4.768656 20.9559,-5.027805 0.38995,5.465624 0.77765,10.931379 1.1631,16.397263 -1.88218,0.06035 -3.7637,0.239307 -5.6377,0.52044 5.07592,55.545177 9.13117,111.183543 12.16576,166.915093 1.94894,-0.0255 3.88646,-0.0361 5.81082,-0.0276 2.68267,-0.002 5.37342,0.0176 8.0591,0.0559 -0.88381,-10.63359 -1.70714,-21.25912 -2.46998,-31.87657 1.00022,0.0462 1.99806,0.10118 2.99164,0.16444 1.25984,16.71096 2.7274,33.46035 4.40267,50.24817 -3.92722,-0.0125 -7.85821,-0.0194 -11.7856,-0.0187 -6.0862,-0.006 -12.20024,0.0235 -18.33209,0.0643 0,0 0,0 0,0 -0.66352,0.005 -1.32709,0.01 -1.9907,0.0154 0,0 0,0 0,0 z"
         id="path7725"
         inkscape:original-d="m 194.10156,166.02484 0,-2.36328 3.73047,0 0,-24.43359 -3.73047,0 0,-2.36328 15,0 0,2.36328 -3.75,0 0,24.12109 11.48438,0 0,-4.60937 2.63672,0 0,7.28515 -25.3711,0 z"
         inkscape:connector-curvature="0" />
      <path
         d="m 198.48407,225.15316 c -0.6024,-5.43117 -1.1769,-10.85563 -1.72349,-16.27339 0.31339,0.007 0.62658,0.0138 0.93957,0.021 1.18843,0.0269 2.37847,0.0625 3.57034,0.10567 -6.25954,-55.62031 -8.80205,-110.073368 -7.62753,-163.359182 -1.24584,-0.777683 -2.52445,-1.497863 -3.83795,-2.150863 -0.3465,-0.173634 -0.69575,-0.342352 -1.04759,-0.506109 0.0305,-5.27908 0.089,-10.551454 0.17532,-15.817121 0.37479,0.188606 0.74668,0.382941 1.1155,0.582958 6.16057,3.337151 11.47407,8.087444 16.14012,13.333842 0,0 0,10e-7 0,10e-7 4.41015,4.960936 8.28,10.376858 11.89345,15.958373 -0.79886,12.223718 -1.15786,24.688825 -1.077,37.395321 -0.85308,-0.907184 -1.71193,-1.804749 -2.57882,-2.690382 -0.01,-7.945427 0.14198,-15.804549 0.45543,-23.577368 -2.98826,-3.85038 -6.13227,-7.55246 -9.55555,-10.980315 -0.9237,-0.921592 -1.86664,-1.824339 -2.83027,-2.70163 -0.76224,19.283513 -0.8308,38.858783 -0.20567,58.725815 0.94378,0.50175 1.88355,1.02228 2.82026,1.55725 1.80634,1.04755 3.57631,2.15697 5.32136,3.31658 -0.30182,-7.47018 -0.48217,-14.87945 -0.54104,-22.227785 0.90273,0.769808 1.79513,1.554994 2.6793,2.353437 0.22902,19.526988 1.37597,39.532568 3.44084,60.016758 -0.98208,-0.3942 -1.96593,-0.77877 -2.95266,-1.15261 -0.71868,-7.67923 -1.31587,-15.29754 -1.7916,-22.85492 -1.78669,-0.96336 -3.59136,-1.88085 -5.42377,-2.74253 -0.95025,-0.43849 -1.90081,-0.86419 -2.85246,-1.2734 1.28497,25.26043 3.67292,50.98476 7.16384,77.17299 1.05881,0.0735 2.11965,0.15118 3.18271,0.2322 4.09122,0.32367 8.17056,0.70914 12.2552,1.13888 -1.52816,-8.73133 -2.89429,-17.37579 -4.09838,-25.93338 1.03003,0.26433 2.06018,0.53503 3.0912,0.81134 2.06513,13.75451 4.57081,27.75157 7.51705,41.99117 -5.36915,-0.1175 -10.73405,-0.22083 -16.10195,-0.3026 -5.52249,-0.0806 -11.03064,-0.14315 -16.52917,-0.16598 0,0 -1e-5,0 -1e-5,0 -0.32881,-0.001 -0.65767,-0.003 -0.98658,-0.004 0,0 0,0 0,0 z"
         id="path7727"
         inkscape:original-d="m 222.22656,166.02484 0,-2.36328 3.73047,0 0,-24.43359 -3.73047,0 0,-2.36328 26.21094,0 0,6.875 -2.69531,0 0,-4.19922 -12.26563,0 0,9.35547 7.63672,0 0,-3.71094 2.67578,0 0,10.07812 -2.67578,0 0,-3.71093 -7.63672,0 0,11.79687 12.63672,0 0,-4.19922 2.67578,0 0,6.875 -26.5625,0 z"
         inkscape:connector-curvature="0" />
      <path
         d="m 243.60874,156.14736 c 1.36981,1.62643 2.74637,4.09966 4.18474,7.38245 1.43838,3.28282 3.07088,7.66745 5.02298,13.17913 4.68796,13.18743 10.176,26.1878 16.40632,38.94979 0.28073,0.035 0.56159,0.0701 0.84258,0.10521 0.96299,0.1204 1.92829,0.24146 2.89606,0.363 1.31961,3.52897 2.69042,7.08527 4.11244,10.66891 -0.98274,-0.0282 -1.96488,-0.0562 -2.94646,-0.0841 -3.08745,-0.0876 -6.17139,-0.17429 -9.2527,-0.25943 -6.96454,-14.84326 -13.00778,-29.94008 -18.08369,-45.24201 -3.07916,-9.47102 -4.93597,-15.65502 -6.06386,-18.5039 -0.70333,-1.81562 -1.40725,-3.2127 -2.12603,-4.18509 0,0 0,0 0,0 -0.43216,-0.58417 -0.86963,-1.01496 -1.31473,-1.2871 -0.42082,-0.25729 -0.84121,-0.51394 -1.26123,-0.76989 2.80505,18.2158 6.70855,37.07666 11.7105,56.58257 0.9623,0.11222 1.92514,0.22541 2.88866,0.33951 0.57557,0.068 1.15139,0.13625 1.72747,0.20484 1.15341,4.17509 2.36053,8.38165 3.62134,12.61969 -0.5933,-0.0157 -1.18654,-0.0314 -1.77972,-0.047 -5.7499,-0.15165 -11.49423,-0.29576 -17.23901,-0.4287 -1.0641,-4.77175 -2.07542,-9.5136 -3.03396,-14.22555 1.52621,0.16047 3.05215,0.3244 4.57836,0.49147 -10.42197,-47.3988 -15.14698,-91.50711 -14.17505,-132.324948 -1.05898,-1.584449 -2.12732,-3.160379 -3.2099,-4.724863 0.13275,-4.093571 0.31828,-8.157237 0.55659,-12.190998 3.81499,6.240316 7.40819,12.618459 11.03548,18.980482 0.81182,1.423989 1.62489,2.847828 2.44201,4.26973 1.36335,2.372435 2.57273,5.198933 3.67632,8.400617 1.10358,3.201685 2.10103,6.7796 3.04192,10.7308 0.94534,3.93331 1.79511,8.08028 2.5836,12.51312 0.78848,4.43285 1.51518,9.15117 2.22375,14.28534 1.15141,8.34303 1.72437,14.48316 1.29775,18.54567 -0.42345,4.01666 -1.8526,5.96941 -4.36253,5.66123 z m -9.27109,-11.57834 c 0.79797,0.59044 1.59731,1.18359 2.39874,1.77904 0.0721,0.0536 0.14417,0.10715 0.21629,0.16075 1.86452,1.38588 2.93354,0.047 3.25312,-3.75433 0.33276,-3.79037 -0.10416,-9.76439 -0.94052,-17.95076 -0.83636,-8.18636 -1.66361,-14.83888 -2.71255,-20.3357 -1.03756,-5.480857 -2.22667,-9.463384 -3.75563,-11.821586 -0.0591,-0.09121 -0.11826,-0.182408 -0.17737,-0.273605 -0.65651,-1.012345 -1.31163,-2.024384 -1.96658,-3.035386 -0.0239,17.675257 1.20426,36.085787 3.6845,55.231577 z"
         id="path7729"
         inkscape:original-d="m 271.97266,151.78656 q 1.73828,0.25391 2.92968,1.15234 1.19141,0.89844 2.07032,2.59766 l 4.25781,8.125 2.98828,0 0,2.36328 -9.58984,0 -4.64844,-8.80859 q -1.34766,-2.73438 -2.30469,-3.47656 -0.9375,-0.76172 -2.61719,-0.76172 l -1.1914,0 0,10.68359 3.75,0 0,2.36328 -15,0 0,-2.36328 3.73047,0 0,-24.43359 -3.73047,0 0,-2.36328 16.64062,0 q 5.07813,0 7.83203,2.05078 2.77344,2.03125 2.77344,5.78125 0,3.04687 -1.97266,4.82422 -1.95312,1.75781 -5.91796,2.26562 z m -8.10547,-1.15234 2.55859,0 q 2.73438,0 4.19922,-1.48438 1.48437,-1.48437 1.48437,-4.23828 0,-2.75391 -1.48437,-4.21875 -1.46484,-1.46484 -4.19922,-1.46484 l -2.55859,0 0,11.40625 z"
         inkscape:connector-curvature="0" />
      <path
         d="m 304.12796,201.87136 c 2.179,7.84654 3.30045,13.96822 3.28131,18.44442 0,0 0,0 0,0 -10e-4,0.73574 -0.0339,1.42707 -0.0991,2.07366 -0.23097,2.28894 -0.87537,4.05703 -1.99856,5.2656 -1.12319,1.20856 -2.72869,1.85849 -4.88182,1.84702 -2.27035,-0.0121 -4.69006,-0.6676 -7.26141,-2.08682 -2.28697,-1.26142 -4.69222,-3.12529 -7.18025,-5.63452 -2.48803,-2.50923 -5.05823,-5.66384 -7.65133,-9.46602 -4.05326,-5.96514 -7.8701,-13.08888 -11.26777,-21.11844 -3.39767,-8.02956 -6.37672,-16.96273 -8.75372,-26.38922 -2.38366,-9.45289 -3.67503,-17.40626 -4.19171,-23.75531 -0.51668,-6.34905 -0.2614,-11.09302 0.579,-14.28798 0.54034,-2.05534 1.29939,-3.38591 2.25643,-4.06399 0.95704,-0.67808 2.11188,-0.70396 3.48397,-0.16154 1.54271,0.61045 3.36534,1.93781 5.54609,3.82963 2.13228,1.84978 4.5586,4.30201 7.40103,7.22015 1.67248,1.71704 3.51012,3.61453 5.54794,5.66167 1.42862,1.43125 2.95458,2.92934 4.58165,4.4854 1.90637,7.23879 4.0214,14.51786 6.34508,21.83721 -1.36045,-0.40679 -2.70619,-0.85694 -4.03415,-1.35024 -0.10495,-0.26192 -0.20966,-0.52203 -0.31413,-0.78034 -3.0393,-7.53914 -5.88663,-13.54354 -8.66679,-18.20674 -2.8853,-4.86348 -5.71854,-8.34132 -8.56712,-10.53232 -1.58352,-1.21798 -2.82358,-1.74257 -3.76511,-1.48131 -0.94154,0.26127 -1.58445,1.30833 -1.91211,3.21195 -0.10484,0.61096 -0.17711,1.30991 -0.21495,2.09868 -0.14123,2.83348 0.16059,6.90274 1.07096,12.28016 0.91038,5.37743 2.431,12.06441 4.82429,20.08379 2.39329,8.01939 5.0403,15.27568 7.7123,21.54569 2.67199,6.27002 5.36773,11.55193 7.91623,15.7274 0.70312,1.152 1.39928,2.22691 2.08602,3.22368 2.14632,3.11744 4.19937,5.46535 6.11073,7.05539 1.91137,1.59003 3.67976,2.42314 5.31095,2.57181 2.56308,0.23362 3.76205,-1.49195 3.79874,-4.8949 0.0547,-3.40066 -1.03512,-8.52572 -3.07097,-15.35488 0.27772,0.0601 0.55623,0.11946 0.83552,0.17818 1.70081,0.34873 3.41616,0.65649 5.14279,0.92308 0,0 0,0 0,0 z"
         id="path7731"
         inkscape:original-d="m 313.82812,157.70453 q -1.15234,4.51172 -4.14062,6.69922 -2.98828,2.1875 -8.02734,2.1875 -7.38282,0 -11.67969,-4.0625 -4.27735,-4.08203 -4.27735,-11.05469 0,-6.99219 4.27735,-11.05469 4.29687,-4.08203 11.67969,-4.08203 2.59765,0 5.41015,0.625 2.8125,0.625 5.95703,1.89453 l 0,7.16797 -2.48047,0 q -0.76171,-3.67187 -2.77343,-5.48828 -2.01172,-1.83594 -5.3125,-1.83594 -4.25782,0 -6.32813,3.14453 -2.07031,3.125 -2.07031,9.62891 0,6.50391 2.07031,9.62891 2.07031,3.125 6.36719,3.125 2.91016,0 4.74609,-1.6211 1.85547,-1.62109 2.69532,-4.90234 l 3.88671,0 z"
         inkscape:connector-curvature="0" />
      <path
         d="m 339.00333,222.51718 c 1.65179,-0.0141 2.87774,-0.81415 3.71411,-2.41143 0.83638,-1.59728 1.28346,-3.99253 1.33545,-7.18981 0.10396,-6.39459 -1.34212,-16.19011 -4.82888,-29.26332 -3.4973,-13.11271 -7.28327,-22.72964 -11.11988,-28.84493 -3.8366,-6.11528 -7.82495,-8.92843 -11.84736,-8.65305 -4.00136,0.27394 -5.98052,3.52813 -5.8827,9.88844 0.10605,6.32109 2.29545,15.83042 6.47276,28.57571 4.16462,12.70655 8.1645,22.21281 11.83043,28.52087 3.67173,6.2692 7.03977,9.40562 10.32607,9.37752 0,0 0,0 0,0 z m 1.94801,7.07466 c -4.36358,0.002 -8.62445,-1.91371 -13.04295,-5.74849 -2.0057,-1.6969 -4.07379,-3.77919 -6.20402,-6.26286 -3.47144,-4.04742 -6.90067,-8.92437 -10.09892,-14.59 -3.19824,-5.66563 -6.15545,-12.11181 -8.6683,-19.22379 -2.51285,-7.11198 -4.03626,-13.34352 -4.65207,-18.70264 -0.61581,-5.35913 -0.33235,-9.84751 0.73814,-13.64522 0.6581,-2.33562 1.58576,-4.32906 2.76986,-6.032 2.58547,-3.86096 6.6791,-5.89431 12.20003,-6.29657 7.97659,-0.58119 15.49788,2.45331 22.34539,9.91745 3.42376,3.73208 6.46661,8.35096 9.07798,13.89749 2.61137,5.54653 4.78751,12.02096 6.49186,19.3825 1.69965,7.34127 2.56316,13.97416 2.74579,19.81032 0.18264,5.83617 -0.31201,10.8736 -1.36861,15.0728 -1.04774,4.19888 -2.58831,7.30694 -4.62474,9.36122 -2.03644,2.05429 -4.57027,3.05825 -7.70944,3.05979 z"
         id="path7733"
         inkscape:original-d="m 333.22266,164.22797 q 3.73046,0 5.54687,-3.14453 1.81641,-3.14454 1.81641,-9.60938 0,-6.48437 -1.81641,-9.62891 -1.81641,-3.14453 -5.54687,-3.14453 -3.71094,0 -5.54688,3.1836 -1.81641,3.16406 -1.81641,9.58984 0,6.40625 1.81641,9.58984 1.83594,3.16407 5.54688,3.16407 z m 0,2.36328 q -7.36329,0 -11.54297,-4.02344 Q 317.5,158.54437 317.5,151.47406 q 0,-7.07031 4.17969,-11.09375 4.19922,-4.04297 11.54297,-4.04297 7.36328,0 11.54296,4.02344 4.17969,4.02344 4.17969,11.11328 0,7.07031 -4.19922,11.09375 -4.17968,4.02344 -11.52343,4.02344 z"
         inkscape:connector-curvature="0" />
      <path
         d="m 362.65043,227.77843 c -0.37559,-2.48977 -0.76592,-4.97775 -1.17099,-7.46394 1.06441,-0.038 2.12712,-0.0775 3.18818,-0.11823 0.33885,-14.35809 0.55751,-29.05399 0.32123,-44.08413 -0.23629,-15.03015 -0.92751,-30.39455 -2.23253,-46.09123 2.37908,-0.85869 4.7482,-1.74418 7.11032,-2.64372 2.22257,4.58324 4.353,9.2267 6.38678,13.93362 5.18407,12.02667 9.71657,24.49259 13.59891,37.39377 3.88234,12.90118 7.11453,26.23763 9.79596,39.95338 1.19293,-0.0472 2.38413,-0.0926 3.5737,-0.13595 0.14072,2.9448 0.26166,5.89288 0.36284,8.84426 -5.11026,0.0424 -10.22828,0.0939 -15.35581,0.14794 -0.72173,0.008 -1.44362,0.0161 -2.16569,0.0242 -0.15965,-2.75822 -0.34143,-5.51234 -0.54534,-8.26237 0.73536,-0.035 1.47003,-0.07 2.20403,-0.10498 0.50776,-0.023 1.01515,-0.046 1.5222,-0.0688 -0.73296,-3.40269 -1.50816,-6.77736 -2.32651,-10.12365 -0.86749,-3.53273 -1.78422,-7.03313 -2.75015,-10.50172 -4.98483,0.66358 -10.03893,1.31983 -15.17384,1.91892 -0.13378,6.61924 -0.33559,13.16997 -0.57576,19.65148 1.54249,-0.0633 3.08155,-0.12883 4.61732,-0.19601 0.29325,2.60344 0.56704,5.21005 0.82138,7.81983 -3.73024,0.0387 -7.4655,0.0752 -11.20623,0.10741 z m 6.45258,-35.29057 c 4.30465,-0.62829 8.54637,-1.30327 12.73336,-1.9896 -3.79385,-12.46338 -8.24251,-24.50936 -13.28168,-36.19347 0.53571,12.96257 0.68127,25.69164 0.54832,38.18307 z"
         id="path7735"
         inkscape:original-d="m 350.35156,166.02484 0,-2.36328 2.38281,0 10.97657,-26.79687 4.66797,0 10.99609,26.79687 2.77344,0 0,2.36328 -13.65235,0 0,-2.36328 2.85157,0 -2.40235,-5.95703 -10.95703,0 -2.44141,5.95703 3.47657,0 0,2.36328 -8.67188,0 z m 8.59375,-10.68359 9.04297,0 -4.49219,-11.15235 -4.55078,11.15235 z"
         inkscape:connector-curvature="0" />
      <path
         d="m 406.74074,222.02117 c -0.35227,-8.71162 -0.86296,-17.39847 -1.53206,-26.06054 1.0801,-0.10692 2.15765,-0.2085 3.23286,-0.30398 1.00568,7.57072 2.32546,13.37943 4.07686,17.44568 0,0 0,0 0,0 0.15851,0.36801 0.32058,0.72165 0.48626,1.06091 1.99519,4.08551 4.55885,6.13901 7.74338,6.09012 2.5843,-0.0397 4.49794,-1.56542 5.73515,-4.60588 1.23721,-3.04044 1.74583,-7.49085 1.48632,-13.33377 -0.20488,-4.61285 -0.84607,-8.1865 -1.92141,-10.70381 -1.07534,-2.51731 -3.1613,-4.80699 -6.26894,-6.77614 -2.02192,-1.2569 -4.05286,-2.48044 -6.09213,-3.66348 -1.28495,-0.77968 -2.46655,-1.66601 -3.54757,-2.66167 -2.28379,-2.10756 -4.1367,-4.69321 -5.55955,-7.80526 -2.10249,-4.6358 -3.74245,-11.34773 -5.03284,-20.24278 -0.77845,-5.36604 -1.19307,-10.20632 -1.17048,-14.56385 0.0226,-4.35753 0.48257,-8.23318 1.43669,-11.62528 0.69496,-2.47534 1.62491,-4.60626 2.79979,-6.37269 2.07052,-3.1142 4.90962,-5.09525 8.44958,-5.77233 2.73245,-0.52262 5.65665,-0.43075 8.71729,0.31089 3.08156,0.73894 6.29887,2.12939 9.59023,4.1882 0.53115,8.49114 1.03118,16.98326 1.50009,25.47635 -1.21748,0.0636 -2.43355,0.13915 -3.64782,0.22682 -1.07302,-7.86309 -2.75092,-13.53381 -5.02663,-16.94679 -2.28007,-3.46406 -5.32771,-4.93395 -8.99113,-4.30437 -2.99551,0.5148 -5.07753,2.29741 -6.22296,5.20384 -1.13253,2.85247 -1.30576,6.79493 -0.6328,11.84172 0.61358,4.6015 1.5362,8.01797 2.78202,10.28477 1.24,2.21705 3.85846,4.30206 7.81386,6.47922 2.17688,1.14107 4.3386,2.33238 6.48443,3.5661 3.98849,2.3386 6.96034,6.38479 8.88999,11.98835 1.94754,5.60294 3.07718,13.40511 3.44372,23.35748 0.42921,11.65406 -0.6023,20.54157 -3.00675,26.63081 -2.40617,6.03779 -6.13495,9.03395 -11.18325,9.03799 -2.43251,0.002 -4.86808,-0.63244 -7.3066,-1.8743 -0.39171,-0.19949 -0.78504,-0.41526 -1.17998,-0.64713 -2.06401,-1.2123 -4.1732,-2.86542 -6.34562,-4.9252 0,0 0,0 0,0 z"
         id="path7737"
         inkscape:original-d="m 384.76562,164.61859 0,-6.91406 2.48047,0 q 0.56641,3.28125 2.67578,4.90234 2.10938,1.6211 5.83985,1.6211 3.02734,0 4.60937,-1.15235 1.58203,-1.15234 1.58203,-3.3789 0,-1.75782 -1.07421,-2.73438 -1.07422,-0.97656 -4.4336,-1.8164 l -4.375,-1.07422 q -4.27734,-1.09375 -6.01562,-3.02735 -1.73828,-1.95312 -1.73828,-5.54687 0,-4.33594 2.87109,-6.73828 2.89062,-2.42188 8.08594,-2.42188 2.55859,0 5.3125,0.42969 2.77343,0.42969 5.74218,1.28906 l 0,6.44531 -2.48046,0 q -0.56641,-3.00781 -2.48047,-4.39453 -1.91407,-1.40625 -5.44922,-1.40625 -2.89063,0 -4.375,1.01563 -1.46485,0.99609 -1.46485,2.98828 0,1.81641 1.01563,2.77344 1.01562,0.9375 4.98047,1.95312 l 4.375,1.07422 q 4.0625,1.01563 5.8789,3.16406 1.83594,2.14844 1.83594,5.91797 0,4.41406 -3.04687,6.71875 -3.04688,2.28516 -8.96485,2.28516 -2.85156,0 -5.66406,-0.48828 -2.8125,-0.48828 -5.72266,-1.48438 z"
         inkscape:connector-curvature="0" />
      <path
         d="m 449.21921,227.21539 c -0.12411,-3.12128 -0.2416,-6.24194 -0.35249,-9.36196 1.61662,0.0138 3.23576,0.0353 4.85714,0.0636 -1.30702,-31.66911 -1.41789,-63.20169 -0.33261,-94.59773 -4.01607,-0.7036 -8.06672,-1.109 -12.13107,-1.15166 0.13818,6.09254 0.27974,12.18533 0.42468,18.27838 -0.2842,-0.001 -0.56836,-0.001 -0.85246,9.5e-4 -1.02311,4.6e-4 -2.04598,0.009 -3.06838,0.0253 -0.34559,-9.62923 -0.70308,-19.25844 -1.07247,-28.88764 1.11686,-0.0225 2.23391,-0.0337 3.35085,-0.0337 14.44503,-0.006 28.57528,4.5993 41.52101,11.12778 -1.41224,8.46919 -2.55812,17.0013 -3.43763,25.59633 -1.18814,-0.45499 -2.38165,-0.89701 -3.57992,-1.32413 0.51014,-5.54652 1.12032,-11.07158 1.83052,-16.57518 -3.82915,-1.63428 -7.73479,-3.09391 -11.69557,-4.31291 -2.52012,30.37526 -2.99544,61.07285 -1.42596,92.09276 1.63738,0.0522 3.27651,0.10979 4.91712,0.1718 0.16376,2.99357 0.35063,5.99138 0.5606,8.99343 -6.51207,-0.0546 -13.0178,-0.0936 -19.51336,-0.10541 z"
         id="path7739"
         inkscape:original-d="m 417.83203,166.02484 0,-2.36328 3.86719,0 0,-24.12109 -7.98828,0 0,4.60937 -2.67578,0 0,-7.28515 28.90625,0 0,7.28515 -2.63672,0 0,-4.60937 -8.04688,0 0,24.12109 3.88672,0 0,2.36328 -15.3125,0 z"
         inkscape:connector-curvature="0" />
      <path
         d="m 480.32553,227.4324 c -0.24027,-2.87599 -0.45117,-5.74451 -0.63271,-8.60555 1.57864,0.0797 3.15643,0.16327 4.73344,0.25041 -1.9563,-28.89859 -0.55577,-56.87004 4.20159,-83.91433 -1.69945,-0.92334 -3.41546,-1.81711 -5.14865,-2.67893 0.42569,-2.7065 0.88075,-5.40552 1.36517,-8.09706 12.45137,6.68407 23.93231,15.06766 34.6794,24.25748 -1.89955,5.69129 -3.45782,11.50965 -4.67481,17.45506 -1.09489,-0.70852 -2.19458,-1.41017 -3.29927,-2.1042 0.73921,-3.77131 1.60333,-7.49736 2.59235,-11.17815 -5.06486,-3.79952 -10.2697,-7.41704 -15.63661,-10.76922 -2.00384,9.58921 -3.45872,19.35023 -4.36465,29.28308 3.21235,1.30201 6.39342,2.67412 9.5467,4.10312 0.37952,-3.62984 0.85286,-7.22734 1.42002,-10.7925 1.11076,0.61525 2.21681,1.23878 3.31835,1.86991 -1.55888,9.36294 -2.40936,18.97734 -2.55143,28.84321 -1.10234,-0.32137 -2.20624,-0.63847 -3.3118,-0.95093 0.0575,-3.7408 0.20892,-7.44926 0.45412,-11.12539 -3.14938,-1.20124 -6.32,-2.35343 -9.51484,-3.44532 -0.74927,12.64794 -0.62569,25.56909 0.37073,38.76343 5.32746,0.37581 10.64664,0.79008 15.96054,1.23151 -0.42981,-4.17765 -0.73438,-8.30974 -0.91369,-12.39628 1.10964,0.21354 2.21853,0.42974 3.32671,0.64836 0.31601,6.48817 0.97409,13.10413 1.97425,19.84789 -11.29346,-0.1956 -22.58983,-0.36809 -33.89491,-0.4956 0,0 0,0 0,0 z"
         id="path7741"
         inkscape:original-d="m 442.22656,166.02484 0,-2.36328 3.73047,0 0,-24.43359 -3.73047,0 0,-2.36328 26.21094,0 0,6.875 -2.69531,0 0,-4.19922 -12.26563,0 0,9.35547 7.63672,0 0,-3.71094 2.67578,0 0,10.07812 -2.67578,0 0,-3.71093 -7.63672,0 0,11.79687 12.63672,0 0,-4.19922 2.67578,0 0,6.875 -26.5625,0 z"
         inkscape:connector-curvature="0" />
      <path
         d="m 540.00438,200.11656 c 1.03816,0.75985 1.93537,1.68387 2.71414,2.74962 0.21817,0.2987 0.42704,0.60861 0.62728,0.92969 0.91476,1.46674 1.73482,3.29306 2.57606,5.4935 2.03278,5.26871 4.70371,10.33411 8.07115,15.23299 0.16463,0.0152 0.32924,0.0303 0.49381,0.0455 0,0 0,0 0,0 0.82378,0.0759 1.6446,0.149 2.46207,0.21956 0.21355,0.0184 0.42573,0.0352 0.63649,0.0503 0.0321,0.001 0.064,0.003 0.0956,0.004 0.50001,1.29382 1.04908,2.61203 1.64721,3.95464 -0.0338,-1.5e-4 -0.0676,-3.7e-4 -0.10148,-6.7e-4 -0.21911,-0.003 -0.43857,-0.007 -0.65837,-0.0112 -0.84141,-0.0159 -1.68363,-0.0324 -2.52659,-0.0496 0,0 0,0 0,0 -2.96466,-0.0605 -5.93168,-0.12087 -8.90058,-0.18142 -0.22735,-0.35788 -0.45198,-0.71651 -0.6739,-1.07588 -3.53774,-5.72859 -6.38826,-11.64703 -8.5972,-17.77726 -1.38113,-4.02218 -2.25487,-6.73334 -3.00007,-8.05451 -0.72957,-1.34154 -1.73663,-2.31986 -3.06232,-2.88628 -0.47016,-0.20088 -0.94088,-0.40111 -1.41217,-0.6007 -0.27011,7.7571 0.3613,15.89493 1.89425,24.41349 1.56871,0.13503 3.13628,0.27152 4.70272,0.40941 0.36267,1.77805 0.77027,3.5756 1.22281,5.39263 -6.36685,-0.1254 -12.73775,-0.24568 -19.11286,-0.35985 -0.36211,-2.22143 -0.68282,-4.42686 -0.96213,-6.61626 1.56744,0.12501 3.13372,0.25167 4.69885,0.3799 -3.07372,-21.61503 -1.62118,-41.42463 4.35762,-59.42881 -1.4678,-1.25477 -2.94832,-2.49576 -4.44168,-3.72237 0.57687,-1.8582 1.19515,-3.70038 1.85484,-5.52654 6.67798,5.99118 13.07373,12.29227 19.19655,18.84527 2.16139,2.31324 3.80964,4.71341 5.00315,7.05827 0.86994,1.7093 1.4986,3.39156 1.91971,5.03301 0.51088,1.94533 0.70923,3.75243 0.65624,5.47597 -0.053,1.72355 -0.35696,3.36392 -0.84648,5.04298 -0.79546,2.72845 -1.83298,4.48501 -3.49681,5.42402 -1.10755,0.6238 -2.50224,0.86841 -4.24474,0.69554 -0.84931,-0.0842 -1.77943,-0.26735 -2.79317,-0.55846 z m -9.30094,-7.00846 c 1.0025,0.50565 2.00186,1.01481 2.99809,1.52736 2.12938,1.09554 3.81633,0.96235 5.15905,-0.19333 1.35765,-1.14691 2.27765,-3.22782 3.05727,-6.31006 0.77961,-3.08224 1.06369,-5.78795 0.59019,-8.41208 -0.45906,-2.61079 -1.64009,-4.96961 -3.69204,-6.91176 -0.96001,-0.90865 -1.92589,-1.81158 -2.89767,-2.7086 -2.76591,7.23552 -4.50421,14.90501 -5.21489,23.00847 z"
         id="path7743"
         inkscape:original-d="m 491.97266,151.78656 q 1.73828,0.25391 2.92968,1.15234 1.19141,0.89844 2.07032,2.59766 l 4.25781,8.125 2.98828,0 0,2.36328 -9.58984,0 -4.64844,-8.80859 q -1.34766,-2.73438 -2.30469,-3.47656 -0.9375,-0.76172 -2.61719,-0.76172 l -1.1914,0 0,10.68359 3.75,0 0,2.36328 -15,0 0,-2.36328 3.73047,0 0,-24.43359 -3.73047,0 0,-2.36328 16.64062,0 q 5.07813,0 7.83203,2.05078 2.77344,2.03125 2.77344,5.78125 0,3.04687 -1.97266,4.82422 -1.95312,1.75781 -5.91796,2.26562 z m -8.10547,-1.15234 2.55859,0 q 2.73438,0 4.19922,-1.48438 1.48437,-1.48437 1.48437,-4.23828 0,-2.75391 -1.48437,-4.21875 -1.46484,-1.46484 -4.19922,-1.46484 l -2.55859,0 0,11.40625 z"
         inkscape:connector-curvature="0" />
    </g>
  </g>
</svg>
