<?xml version="1.0" encoding="UTF-8" standalone="no"?>
<!-- Created with Inkscape (http://www.inkscape.org/) -->

<svg
        xmlns:dc="http://purl.org/dc/elements/1.1/"
        xmlns:cc="http://creativecommons.org/ns#"
        xmlns:rdf="http://www.w3.org/1999/02/22-rdf-syntax-ns#"
        xmlns:svg="http://www.w3.org/2000/svg"
        xmlns="http://www.w3.org/2000/svg"
        xmlns:sodipodi="http://sodipodi.sourceforge.net/DTD/sodipodi-0.dtd"
        xmlns:inkscape="http://www.inkscape.org/namespaces/inkscape"
        sodipodi:docname="inkscape_text_effect_PAP_ribben.svg"
        inkscape:version="0.48+devel r10437 custom"
        version="1.1"
        id="svg2"
        height="300"
        width="600">
    <sodipodi:namedview
            id="base"
            pagecolor="#ffffff"
            bordercolor="#666666"
            borderopacity="1.0"
            inkscape:pageopacity="0.0"
            inkscape:pageshadow="2"
            inkscape:zoom="1.4283333"
            inkscape:cx="165.09167"
            inkscape:cy="178.00467"
            inkscape:document-units="px"
            inkscape:current-layer="layer1"
            showgrid="true"
            showguides="true"
            inkscape:guide-bbox="true"
            inkscape:window-width="960"
            inkscape:window-height="978"
            inkscape:window-x="927"
            inkscape:window-y="29"
            inkscape:window-maximized="0">
        <inkscape:grid
                snapvisiblegridlinesonly="true"
                enabled="true"
                visible="true"
                empspacing="5"
                id="grid2985"
                type="xygrid"/>
        <sodipodi:guide
                id="guide2987"
                position="300,0"
                orientation="1,0"/>
        <sodipodi:guide
                id="guide2991"
                position="0,150"
                orientation="0,1"/>
        <sodipodi:guide
                id="guide2993"
                position="150,0"
                orientation="1,0"/>
        <sodipodi:guide
                id="guide2995"
                position="450,0"
                orientation="1,0"/>
    </sodipodi:namedview>
    <defs
            id="defs4"/>
    <metadata
            id="metadata7">
        <rdf:RDF>
            <cc:Work
                    rdf:about="">
                <dc:format>image/svg+xml</dc:format>
                <dc:type
                        rdf:resource="http://purl.org/dc/dcmitype/StillImage"/>
                <dc:title></dc:title>
            </cc:Work>
        </rdf:RDF>
    </metadata>
    <g
            id="layer1"
            inkscape:groupmode="layer"
            inkscape:label="Layer 1">
        <text
       id="text3129"
       y="-20"
       x="20"
       style="font-size:56px;font-family:DejaVu Serif"
       xml:space="preserve"><tspan
         y="-20"
         x="20"
         id="tspan3131"
         sodipodi:role="line">Sample Text: Office</tspan></text>
        <g
                id="text3102">
            <path
                    id="path3134"
                    style="fill:#000000"
                    d="m 23.258887,214.3536 c 0,0 0,-44.38179 0,-44.38179 0,0 20.086262,-0.48261 20.086262,-0.48261 0.563951,14.31283 6.038431,24.55268 16.174507,30.58981 9.920167,5.75625 24.369793,7.63873 42.700624,5.86926 16.09948,-1.55407 27.76784,-5.2326 35.50065,-10.97614 7.59881,-5.66153 11.31917,-13.18556 11.31917,-22.68985 0,-7.60343 -2.24978,-13.4095 -6.80683,-17.46943 -4.55333,-4.12977 -14.48899,-8.25402 -30.40668,-12.49546 0,0 -27.88764,-7.3678 -27.88764,-7.3678 C 61.976514,129.07278 45.482885,121.70492 35.459492,112.97437 25.234682,103.97274 20,91.974435 20,77.194752 20,60.578549 28.08749,48.929488 43.683638,42.486687 c 14.869328,-6.14252 34.609453,-6.729711 58.257412,-2.253321 9.52543,1.803097 19.6136,4.564114 30.18914,8.220572 10.18369,3.449669 20.61779,7.61901 31.25208,12.452738 0,0 0,32.677816 0,32.677816 0,0 -12.93098,-1.407132 -12.93098,-1.407132 -1.3326,-11.266907 -5.5304,-19.899243 -12.73036,-25.974365 -7.31148,-6.299407 -18.87406,-10.829572 -35.2217,-13.577352 -15.066607,-2.532459 -27.094698,-1.94989 -35.666744,1.928326 -8.710122,3.922822 -13.158365,11.030958 -13.158365,21.240475 0,8.881417 3.369125,16.166723 10.000102,21.765345 6.491697,5.481031 19.818929,11.287571 39.103697,17.204891 0,0 24.66864,7.5447 24.66864,7.5447 16.75492,5.17044 28.0774,11.06927 34.59246,17.80005 6.42872,6.49882 9.58381,15.04805 9.58381,25.76751 0,14.62972 -5.05959,26.06442 -15.48594,34.5542 -10.85701,8.84046 -27.88297,14.74452 -52.24689,17.61308 -11.605392,1.3664 -23.937123,1.82417 -37.057514,1.31564 -13.595739,-0.54318 -28.092385,-2.18524 -43.573599,-5.00628 0,0 0,2e-5 0,2e-5"
                    inkscape:connector-curvature="0"/>
            <path
                    id="path3136"
                    d="m 258.32397,169.39057 c 0,0 0,-18.88691 0,-18.88691 0,0 -18.42477,0.0219 -18.42477,0.0219 -7.53566,0.009 -13.31521,1.79042 -17.19315,5.38955 -3.94457,3.66098 -5.94239,9.2638 -5.94239,16.76107 0,6.82129 2.02751,12.07698 6.02994,15.71923 3.93383,3.57982 9.14997,5.03075 15.55885,4.4121 6.17589,-0.59615 11.02002,-3.09237 14.61509,-7.44604 3.58589,-4.28554 5.35643,-9.59133 5.35643,-15.97091 0,0 0,0 0,0 m 13.27828,-27.44024 c 0,0 0,45.37093 0,45.37093 0,0 11.15224,-1.01463 11.15224,-1.01463 0,0 0,8.38454 0,8.38454 0,0 -24.43052,2.73597 -24.43052,2.73597 0,0 0,-9.65331 0,-9.65331 -3.05151,4.44315 -6.6335,7.89534 -10.77174,10.34318 -4.21864,2.4954 -9.25425,4.10227 -15.16073,4.79769 -10.12366,1.19194 -18.49029,-0.72906 -24.88228,-5.90772 -6.56904,-5.3221 -9.92227,-13.15779 -9.92227,-23.39573 0,-10.55787 3.83304,-18.78672 11.31992,-24.54861 7.25709,-5.58506 17.13126,-8.1871 29.28214,-7.94385 0,0 20.13496,0.40309 20.13496,0.40309 0,0 0,-6.12775 0,-6.12775 0,-6.77131 -1.84568,-12.11965 -5.58574,-16.09681 -3.75453,-4.10075 -9.16517,-6.47581 -16.35511,-7.08577 -6.12728,-0.5198 -11.12295,0.56465 -14.90617,3.29771 -3.84645,2.77873 -6.27575,7.17557 -7.2425,13.17414 0,0 -8.79011,-0.40073 -8.79011,-0.40073 0,0 0,-20.301 0,-20.301 5.95763,-2.02313 11.58869,-3.36917 16.91121,-4.0637 5.25914,-0.73293 10.25959,-0.8408 15.01441,-0.34412 11.76933,1.2294 20.30736,5.20383 25.96016,11.8362 5.55133,6.40655 8.27213,15.21109 8.27213,26.54028 0,0 0,0 0,0"
                    style="stroke:none"
                    inkscape:connector-curvature="0"/>
            <path
                    id="path3138"
                    d="m 345.14958,130.58102 c 1.65544,-5.08401 3.74036,-8.80296 6.2385,-11.16735 2.49071,-2.36951 5.33974,-3.37194 8.52756,-3.03895 4.72192,0.49324 8.15301,3.00753 10.37258,7.50541 2.18839,4.3938 3.2711,10.82432 3.2711,19.33769 0,0 0,34.82743 0,34.82743 0,0 6.41605,-0.58373 6.41605,-0.58373 0,0 0,6.34187 0,6.34187 0,0 -20.62028,2.30927 -20.62028,2.30927 0,0 0,-6.77512 0,-6.77512 0,0 6.76603,-0.61557 6.76603,-0.61557 0,0 0,-34.35372 0,-34.35372 0,-6.79983 -0.6638,-11.67528 -1.99981,-14.64506 -1.34734,-2.99497 -3.60419,-4.62436 -6.80921,-4.87275 -3.62702,-0.2811 -6.45402,1.53342 -8.43752,5.48348 -1.97635,3.99915 -2.97335,9.96717 -2.97335,17.86835 0,0 0,32.3593 0,32.3593 0,0 7.33598,-0.66742 7.33598,-0.66742 0,0 0,6.90365 0,6.90365 0,0 -24.27349,2.71839 -24.27349,2.71839 0,0 0,-7.41365 0,-7.41365 0,0 8.08551,-0.73562 8.08551,-0.73562 0,0 0,-37.99565 0,-37.99565 0,-7.24378 -0.79184,-12.43556 -2.38648,-15.59707 -1.60942,-3.23691 -4.30811,-5.013 -8.14672,-5.31049 -4.35273,-0.33734 -7.75177,1.63004 -10.14,5.95061 -2.38238,4.37954 -3.58526,10.93078 -3.58526,19.61075 0,0 0,35.54887 0,35.54887 0,0 8.83441,-0.80375 8.83441,-0.80375 0,0 0,7.56784 0,7.56784 0,0 -29.75618,3.3324 -29.75618,3.3324 0,0 0,-8.19303 0,-8.19303 0,0 10.2109,-0.92899 10.2109,-0.92899 0,0 0,-64.12906 0,-64.12906 0,0 -10.84358,-0.84469 -10.84358,-0.84469 0,0 0,-8.12891 0,-8.12891 0,0 21.55445,2.12763 21.55445,2.12763 0,0 0,13.82457 0,13.82457 1.91338,-5.02499 4.32344,-8.74722 7.21033,-11.17649 2.84153,-2.39111 6.00729,-3.38862 9.47906,-3.02597 4.21201,0.43998 7.65134,2.21122 10.36073,5.28488 2.66713,2.98088 4.42749,7.00953 5.30869,12.10065 0,0 0,0 0,0"
                    inkscape:connector-curvature="0"/>
            <path
                    id="path3140"
                    d="m 397.04305,148.92753 c 0,0 0,5.92683 0,5.92683 0,7.22508 0.81738,12.68748 2.43814,16.35551 1.62418,3.58738 3.93988,5.22221 6.91269,4.93996 2.93056,-0.27824 5.10306,-2.50273 6.55226,-6.6443 1.45356,-4.09854 2.17446,-10.00785 2.17446,-17.76105 0,-7.78845 -0.7209,-13.68842 -2.17446,-17.73261 -1.4492,-4.0869 -3.6217,-6.26467 -6.55226,-6.50399 -2.97281,-0.24277 -5.28851,1.44136 -6.91269,5.08772 -1.62076,3.68988 -2.43814,9.14448 -2.43814,16.33193 0,0 0,0 0,0 m -6.33641,-21.48898 c 0,0 -6.36725,-0.49347 -6.36725,-0.49347 0,0 0,-6.30915 0,-6.30915 0,0 12.70366,1.25398 12.70366,1.25398 0,0 0,9.37003 0,9.37003 1.20761,-3.66764 2.72483,-6.28714 4.54158,-7.86637 1.81497,-1.59363 4.0192,-2.24636 6.59376,-1.97742 4.00483,0.41833 7.1882,3.47959 9.60408,9.11517 2.37246,5.53431 3.54278,12.56708 3.54278,21.17257 0,8.60549 -1.17032,15.67086 -3.54278,21.27125 -2.41588,5.66767 -5.59925,8.7712 -9.60408,9.24272 -2.57456,0.30313 -4.77879,-0.30193 -6.59376,-1.83431 -1.81675,-1.59201 -3.33397,-4.21 -4.54158,-7.8616 0,0 0,27.3763 0,27.3763 0,0 5.7434,-1.00636 5.7434,-1.00636 0,0 0,5.91791 0,5.91791 0,0 -18.44706,3.62353 -18.44706,3.62353 0,0 0,-6.30915 0,-6.30915 0,0 6.36725,-1.11567 6.36725,-1.11567 0,0 0,-73.56996 0,-73.56996 0,0 0,0 0,0"
                    inkscape:connector-curvature="0"/>
            <path
                    id="path3142"
                    d="m 435.30292,172.42785 c 0,0 4.3155,-0.39263 4.3155,-0.39263 0,0 0,5.08875 0,5.08875 0,0 -13.77825,1.54302 -13.77825,1.54302 0,0 0,-5.37823 0,-5.37823 0,0 4.72873,-0.43022 4.72873,-0.43022 0,0 0,-66.9322 0,-66.9322 0,0 -4.72873,-0.8295 -4.72873,-0.8295 0,0 0,-5.378235 0,-5.378235 0,0 9.46275,1.858755 9.46275,1.858755 0,0 0,70.85049 0,70.85049 0,0 0,0 0,0"
                    inkscape:connector-curvature="0"/>
            <path
                    id="path3144"
                    d="m 465.16485,152.276 c 0,0 -16.65036,0.17492 -16.65036,0.17492 0,0 0,0.36995 0,0.36995 0,6.62826 0.60888,11.60026 1.81717,14.89017 1.1958,3.22549 2.93759,4.71308 5.2005,4.49106 1.70291,-0.16709 3.07726,-1.23103 4.13462,-3.17976 1.06093,-1.96063 1.79622,-4.76903 2.21229,-8.42883 0,0 2.93425,-0.14133 2.93425,-0.14133 -0.57533,5.05921 -1.64909,8.93522 -3.23608,11.637 -1.59657,2.73976 -3.73621,4.28149 -6.44994,4.601 -3.36509,0.3962 -6.14647,-1.63004 -8.29807,-6.14939 -2.17615,-4.63605 -3.27941,-10.98504 -3.27941,-18.98227 0,-7.93426 1.08768,-14.26747 3.23353,-18.9354 2.10736,-4.58423 4.81752,-6.67115 8.08749,-6.32957 3.38619,0.35371 5.91777,2.79409 7.64936,7.2757 1.70468,4.38319 2.57964,10.60302 2.64465,18.70675 0,0 0,0 0,0 m -4.31538,-4.59733 c -0.0812,-5.43389 -0.61696,-9.55199 -1.61404,-12.37018 -0.99224,-2.87214 -2.44121,-4.39838 -4.36459,-4.56155 -1.82602,-0.15491 -3.28465,1.16645 -4.36124,3.9856 -1.08671,2.84563 -1.75418,7.12158 -1.99511,12.81655 0,0 12.33498,0.12958 12.33498,0.12958 0,0 0,0 0,0"
                    inkscape:connector-curvature="0"/>
            <path
                    id="path3146"
                    d="m 485.34052,172.00354 c 0,0 0,-4.12809 0,-4.12809 0,0 3.01583,-0.27438 3.01583,-0.27438 0,0 0,-48.62342 0,-48.62342 0,0 -7.07486,-1.13448 -7.07486,-1.13448 0,0 0,9.26148 0,9.26148 0,0 -2.07601,-0.23702 -2.07601,-0.23702 0,0 0,-14.13644 0,-14.13644 0,0 20.34188,3.7417 20.34188,3.7417 0,0 0,12.71718 0,12.71718 0,0 -1.71343,-0.19562 -1.71343,-0.19562 0,0 0,-8.49703 0,-8.49703 0,0 -6.38721,-1.02422 -6.38721,-1.02422 0,0 0,47.84671 0,47.84671 0,0 2.83264,-0.25771 2.83264,-0.25771 0,0 0,3.94028 0,3.94028 0,0 -8.93884,1.00106 -8.93884,1.00106 0,0 0,0 0,0"
                    inkscape:connector-curvature="0"/>
            <path
                    id="path3148"
                    d="m 512.04201,151.78355 c 0,0 -10.05738,0.10565 -10.05738,0.10565 0,0 0,0.28516 0,0.28516 0,5.10916 0.36199,8.94829 1.08162,11.50196 0.71387,2.50974 1.7567,3.6896 3.1169,3.55614 1.02762,-0.10082 1.8595,-0.90577 2.50105,-2.40738 0.64508,-1.51398 1.09296,-3.69689 1.34668,-6.55083 0,0 1.79533,-0.0865 1.79533,-0.0865 -0.35284,3.95619 -1.01029,6.9745 -1.97941,9.06019 -0.97188,2.10854 -2.26953,3.26686 -3.90746,3.4597 -2.01888,0.2377 -3.67749,-1.38212 -4.95434,-4.90072 -1.28596,-3.59368 -1.93582,-8.47699 -1.93582,-14.61144 0,-6.08615 0.64068,-10.95456 1.90864,-14.56709 1.25044,-3.56258 2.86618,-5.22132 4.8272,-5.01647 2.04411,0.21352 3.58132,2.07181 4.63724,5.54634 1.04307,3.40974 1.57983,8.27523 1.61975,14.62527 0,0 0,0 0,0 m -2.63861,-3.59481 c -0.0494,-4.2394 -0.37539,-7.44743 -0.98108,-9.63369 -0.60157,-2.22397 -1.47791,-3.39045 -2.6373,-3.48881 -1.09664,-0.093 -1.9698,0.95017 -2.61265,3.14229 -0.64752,2.20801 -1.04455,5.51103 -1.18774,9.90228 0,0 7.41877,0.0779 7.41877,0.0779 0,0 0,0 0,0"
                    inkscape:connector-curvature="0"/>
            <path
                    id="path3150"
                    d="m 519.96381,147.30515 c 0,0 2.39087,-9.66374 2.39087,-9.66374 0,0 -1.52496,-0.11819 -1.52496,-0.11819 0,0 0,-3.41436 0,-3.41436 0,0 4.28606,0.42308 4.28606,0.42308 0,0 0,3.32346 0,3.32346 0,0 -1.45158,-0.1125 -1.45158,-0.1125 0,0 -3.0177,12.321 -3.0177,12.321 0,0 3.50454,14.28058 3.50454,14.28058 0,0 1.42241,-0.12941 1.42241,-0.12941 0,0 0,3.28279 0,3.28279 0,0 -5.14305,0.57597 -5.14305,0.57597 0,0 0,-3.39084 0,-3.39084 0,0 1.44752,-0.1317 1.44752,-0.1317 0,0 -2.49292,-10.01161 -2.49292,-10.01161 0,0 -2.58317,10.47343 -2.58317,10.47343 0,0 1.54635,-0.14068 1.54635,-0.14068 0,0 0,3.43459 0,3.43459 0,0 -4.61108,0.51639 -4.61108,0.51639 0,0 0,-3.53147 0,-3.53147 0,0 1.63858,-0.14908 1.63858,-0.14908 0,0 3.30483,-13.36438 3.30483,-13.36438 0,0 -3.65078,-14.70476 -3.65078,-14.70476 0,0 -1.52766,-0.1184 -1.52766,-0.1184 0,0 0,-3.56977 0,-3.56977 0,0 5.41028,0.53405 5.41028,0.53405 0,0 0,3.45503 0,3.45503 0,0 -1.41218,-0.10945 -1.41218,-0.10945 0,0 2.46364,10.03997 2.46364,10.03997 0,0 0,0 0,0"
                    inkscape:connector-curvature="0"/>
            <path
                    id="path3152"
                    d="m 527.99942,138.07888 c 0,0 -1.60885,-0.12468 -1.60885,-0.12468 0,0 0,-3.29643 0,-3.29643 0,0 1.60885,0.15881 1.60885,0.15881 0,0 0,-10.0613 0,-10.0613 0,0 1.79701,0.29493 1.79701,0.29493 0,0 0,9.94375 0,9.94375 0,0 3.2506,0.32087 3.2506,0.32087 0,0 0,3.15525 0,3.15525 0,0 -3.2506,-0.25193 -3.2506,-0.25193 0,0 0,20.33951 0,20.33951 0,2.71194 0.0832,4.44247 0.24919,5.19037 0.16567,0.74627 0.47059,1.09699 0.91306,1.05358 0.45243,-0.0444 0.78061,-0.49306 0.98617,-1.34444 0.20499,-0.86884 0.31347,-2.24162 0.32586,-4.11988 0,0 1.28028,-0.0799 1.28028,-0.0799 -0.0487,2.84485 -0.28974,4.94536 -0.72494,6.30607 -0.43775,1.3687 -1.10859,2.10917 -2.01878,2.21634 -1.01084,0.11901 -1.73428,-0.50225 -2.1619,-1.87072 -0.43003,-1.39645 -0.64595,-3.81515 -0.64595,-7.25022 0,0 0,-20.57994 0,-20.57994 0,0 0,0 0,0"
                    inkscape:connector-curvature="0"/>
            <path
                    id="path3154"
                    d="m 535.62195,163.35882 c 0,-1.08184 0.11237,-2.00821 0.33661,-2.77732 0.22941,-0.76715 0.50785,-1.16045 0.83476,-1.18164 0.32544,-0.0211 0.59745,0.33343 0.81663,1.06184 0.22425,0.72575 0.33612,1.62011 0.33612,2.68475 0,1.06465 -0.109,1.97914 -0.32748,2.74523 -0.21915,0.74934 -0.49403,1.14429 -0.82527,1.18329 -0.33276,0.0392 -0.61122,-0.29368 -0.83476,-1.00034 -0.22424,-0.72814 -0.33661,-1.63397 -0.33661,-2.71581 0,0 0,0 0,0 m 0,-18.8936 c 0,-1.08184 0.11237,-1.98403 0.33661,-2.70491 0.22941,-0.73755 0.50785,-1.09492 0.83476,-1.07393 0.33124,0.0213 0.60612,0.40152 0.82527,1.13913 0.21848,0.73537 0.32748,1.64404 0.32748,2.7277 0,1.08365 -0.109,1.98408 -0.32748,2.70291 -0.21915,0.72101 -0.49403,1.08044 -0.82527,1.07663 -0.32691,-0.004 -0.60535,-0.37259 -0.83476,-1.10822 -0.22424,-0.75712 -0.33661,-1.67747 -0.33661,-2.75931 0,0 0,0 0,0"
                    inkscape:connector-curvature="0"/>
            <path
                    id="path3156"
                    d="m 551.25061,162.60362 c 1.14652,-0.11067 1.999,-1.62006 2.56867,-4.51028 0.56464,-2.88155 0.8451,-7.0852 0.8451,-12.62996 0,-5.56157 -0.28046,-9.78527 -0.8451,-12.69028 -0.56967,-2.94785 -1.42215,-4.52673 -2.56867,-4.71944 -1.17181,-0.19696 -2.06944,1.13318 -2.68124,4.01288 -0.61747,2.8887 -0.92836,7.2775 -0.92836,13.14626 0,5.85103 0.31089,10.26204 0.92836,13.2125 0.6118,2.90583 1.50943,4.29144 2.68124,4.17832 0,0 0,0 0,0 m 0,2.76917 c -0.72157,0.085 -1.39327,-0.27189 -2.01343,-1.0769 -0.62111,-0.8131 -1.17371,-2.05625 -1.65602,-3.73273 -0.56124,-1.95083 -0.98273,-4.19316 -1.2618,-6.72253 -0.27511,-2.53988 -0.41309,-5.43903 -0.41309,-8.68973 0,-3.25069 0.13798,-6.14 0.41309,-8.66025 0.27907,-2.52732 0.70056,-4.74842 1.2618,-6.65909 0.48726,-1.65884 1.03982,-2.86233 1.65602,-3.61424 0.61052,-0.76242 1.28231,-1.07123 2.01343,-0.93283 1.51654,0.28707 2.71595,2.31338 3.61494,6.04413 0.88642,3.67865 1.32501,8.39559 1.32501,14.18921 0,2.97151 -0.12031,5.65364 -0.36161,8.05326 -0.24224,2.39217 -0.61178,4.53424 -1.11086,6.43046 -0.43994,1.68625 -0.94647,2.98477 -1.52115,3.89286 -0.57986,0.89921 -1.22797,1.39381 -1.94633,1.47838 0,0 0,0 0,0"
                    inkscape:connector-curvature="0"/>
            <path
                    id="path3158"
                    d="m 563.05747,140.79592 c 0,0 -3.35556,-0.26006 -3.35556,-0.26006 0,0 0,20.57422 0,20.57422 0,0 1.44462,-0.13143 1.44462,-0.13143 0,0 0,2.53538 0,2.53538 0,0 -3.71615,0.41617 -3.71615,0.41617 0,0 0,-2.61346 0,-2.61346 0,0 1.12099,-0.10198 1.12099,-0.10198 0,0 0,-20.76807 0,-20.76807 0,0 -1.12099,-0.0869 -1.12099,-0.0869 0,0 0,-2.6381 0,-2.6381 0,0 1.12099,0.11065 1.12099,0.11065 0,0 0,-3.2496 0,-3.2496 0,-2.89938 0.19326,-5.05805 0.57797,-6.46937 0.38645,-1.40174 0.94722,-2.02692 1.6775,-1.88347 0.2711,0.0532 0.54099,0.20178 0.80967,0.44495 0.26748,0.24208 0.5318,0.5855 0.79298,1.0296 0,0 0,4.781 0,4.781 0,0 -0.5773,-0.0847 -0.5773,-0.0847 -0.004,-1.18976 -0.0898,-2.10762 -0.25771,-2.75485 -0.16439,-0.64836 -0.40577,-1.00135 -0.72507,-1.05786 -0.41885,-0.0741 -0.71542,0.33163 -0.88788,1.21959 -0.17296,0.87435 -0.25962,2.48237 -0.25962,4.82218 0,0 0,3.31608 0,3.31608 0,0 3.35556,0.33123 3.35556,0.33123 0,0 0,-2.25983 0,-2.25983 0,-3.09157 0.22806,-5.38475 0.68155,-6.87097 0.45003,-1.47489 1.10922,-2.1226 1.9705,-1.95342 0.3239,0.0636 0.65338,0.22751 0.98833,0.49078 0.33301,0.26174 0.66047,0.62715 0.98247,1.09539 0,0 0,4.90932 0,4.90932 0,0 -0.51097,-0.0957 -0.51097,-0.0957 -0.0109,-1.30458 -0.12754,-2.29327 -0.35052,-2.96784 -0.22383,-0.69242 -0.56308,-1.07982 -1.01978,-1.16066 -0.57314,-0.10144 -0.9963,0.37258 -1.26614,1.42646 -0.2711,1.05875 -0.40711,2.77969 -0.40711,5.15916 0,0 0,2.33281 0,2.33281 0,0 3.95357,0.39026 3.95357,0.39026 0,0 0,21.57504 0,21.57504 0,0 0.92742,-0.0844 0.92742,-0.0844 0,0 0,2.37023 0,2.37023 0,0 -2.90102,0.32488 -2.90102,0.32488 0,0 0,-2.43118 0,-2.43118 0,0 0.97615,-0.0888 0.97615,-0.0888 0,0 0,-19.33083 0,-19.33083 0,0 -2.95612,-0.2291 -2.95612,-0.2291 0,0 0,19.82888 0,19.82888 0,0 0.99272,-0.0903 0.99272,-0.0903 0,0 0,2.45192 0,2.45192 0,0 -3.10123,0.34731 -3.10123,0.34731 0,0 0,-2.51708 0,-2.51708 0,0 1.04018,-0.0946 1.04018,-0.0946 0,0 0,-20.00888 0,-20.00888 0,0 0,-4e-5 0,-4e-5"
                    inkscape:connector-curvature="0"/>
            <path
                    id="path3160"
                    d="m 574.55123,155.23037 c -0.12441,2.41851 -0.36448,4.27744 -0.72177,5.57901 -0.35966,1.31024 -0.8282,2.00253 -1.40841,2.07084 -0.77435,0.0912 -1.40482,-0.95467 -1.88629,-3.15275 -0.48567,-2.23202 -0.7301,-5.23517 -0.7301,-8.99479 0,-3.77442 0.24443,-6.77334 0.7301,-8.98228 0.48147,-2.20447 1.11194,-3.25869 1.88629,-3.1778 0.33372,0.0349 0.66377,0.24175 0.9902,0.61914 0.32448,0.36084 0.64863,0.89767 0.97244,1.60888 0,0 0,5.7922 0,5.7922 0,0 -0.51549,-0.0163 -0.51549,-0.0163 -0.0678,-2.00046 -0.21665,-3.46586 -0.44719,-4.39726 -0.22825,-0.93512 -0.55765,-1.42239 -0.99002,-1.45907 -0.49597,-0.0421 -0.87343,0.77096 -1.1299,2.44522 -0.25767,1.66743 -0.38695,4.1894 -0.38695,7.56006 0,3.37066 0.12758,5.89835 0.38187,7.57728 0.2565,1.67093 0.63567,2.47883 1.13498,2.42983 0.39291,-0.0385 0.70455,-0.51433 0.93631,-1.42463 0.23076,-0.90643 0.38784,-2.25377 0.47185,-4.04282 0,0 0.71208,-0.0347 0.71208,-0.0347 0,0 0,0 0,0"
                    inkscape:connector-curvature="0"/>
            <path
                    id="path3162"
                    d="m 580,151.06963 c 0,0 -3.53349,0.0371 -3.53349,0.0371 0,0 0,0.16705 0,0.16705 0,2.99309 0.12434,5.24761 0.37213,6.75819 0.24663,1.48964 0.60838,2.20841 1.08285,2.16185 0.36046,-0.0354 0.65352,-0.49386 0.88031,-1.37277 0.22873,-0.88887 0.38794,-2.18272 0.47828,-3.88226 0,0 0.64234,-0.0309 0.64234,-0.0309 -0.12667,2.36534 -0.36213,4.15903 -0.70789,5.38281 -0.34518,1.23175 -0.80361,1.8843 -1.37831,1.95196 -0.70237,0.0827 -1.27451,-0.91396 -1.71199,-3.00376 -0.43802,-2.12148 -0.65839,-4.97363 -0.65839,-8.54324 0,-3.5415 0.21725,-6.38273 0.6491,-8.51063 0.42836,-2.11066 0.98552,-3.12362 1.66736,-3.0524 0.71738,0.0749 1.26139,1.14354 1.63735,3.19524 0.37322,2.02327 0.56599,4.93378 0.58035,8.74177 0,0 0,0 0,0 m -0.94315,-2.14916 c -0.0176,-2.52632 -0.13323,-4.43391 -0.34771,-5.72615 -0.21241,-1.31107 -0.52079,-1.98575 -0.92684,-2.0202 -0.38206,-0.0324 -0.68488,0.59921 -0.90705,1.89915 -0.22311,1.30547 -0.35958,3.24625 -0.40874,5.81999 0,0 2.59034,0.0272 2.59034,0.0272 0,0 0,0 0,0"
                    inkscape:connector-curvature="0"/>
        </g>
        <g
                id="text3098"
                style="font-size:56px;font-family:DejaVu Serif">
            <path
                    sodipodi:nodetypes="ccccscsccccssscccccscsscccsssccc"
                    inkscape:connector-curvature="0"
                    id="path3165"
                    d="m 25.195312,-121.96875 0,-9.29687 3.144532,0.0273 c 0.09115,3.09896 0.984374,5.39583 2.679687,6.89062 1.713542,1.47657 4.311198,2.21485 7.792969,2.21485 3.244791,0 5.714843,-0.63802 7.410156,-1.91407 1.713542,-1.29427 2.570313,-3.17187 2.570313,-5.63281 0,-1.96875 -0.519531,-3.48177 -1.558594,-4.53906 -1.020833,-1.05729 -3.190104,-2.08724 -6.507813,-3.08984 l -5.386718,-1.61328 c -3.901042,-1.1849 -6.653646,-2.66146 -8.257813,-4.42969 -1.585937,-1.76823 -2.378906,-4.19271 -2.378906,-7.27344 0,-3.46354 1.230469,-6.15234 3.691406,-8.06641 2.460937,-1.91406 5.915364,-2.87109 10.363281,-2.87109 1.895833,0 3.973958,0.20964 6.234375,0.62891 2.260417,0.40104 4.666667,0.99349 7.21875,1.77734 l 0,8.69531 -3.089843,0 c -0.309896,-2.88021 -1.276042,-4.95833 -2.898438,-6.23437 -1.604167,-1.29427 -4.05599,-1.94141 -7.355469,-1.94141 -2.880208,0 -5.076822,0.59245 -6.589843,1.77735 -1.494792,1.16667 -2.242188,2.87109 -2.242188,5.11328 0,1.95052 0.565104,3.48177 1.695313,4.59375 1.130208,1.11198 3.527343,2.21484 7.191406,3.30859 l 5.058594,1.50391 c 3.700521,1.11198 6.334635,2.53385 7.902343,4.26562 1.585938,1.71354 2.378907,4.01953 2.378907,6.91797 0,3.95573 -1.266927,6.9362 -3.800782,8.94141 -2.533854,2.00521 -6.307291,3.00781 -11.320312,3.00781 -2.242187,0 -4.529948,-0.22787 -6.863281,-0.6836 -2.315105,-0.45573 -4.675782,-1.14843 -7.082032,-2.07812 z"/>
            <path
                    sodipodi:nodetypes="scssssscsscccccsssssscscssccccscs"
                    inkscape:connector-curvature="0"
                    id="path3167"
                    d="m 80.675781,-129.13281 0,-6.15235 -6.480469,0 c -2.497395,0 -4.35677,0.53776 -5.578125,1.61329 -1.221354,1.07552 -1.832031,2.72526 -1.832031,4.94921 0,2.02344 0.619792,3.62761 1.859375,4.8125 1.239583,1.1849 2.916667,1.77735 5.03125,1.77735 2.096354,0 3.782552,-0.64714 5.058594,-1.94141 1.294271,-1.29427 1.941406,-2.98047 1.941406,-5.05859 z m 5.03125,-9.02344 0,15.25781 4.484375,0 0,2.89844 -9.515625,0 0,-3.14453 c -1.111979,1.34896 -2.397136,2.34245 -3.855469,2.98047 -1.458333,0.63802 -3.16276,0.95703 -5.113281,0.95703 -3.226563,0 -5.787761,-0.85677 -7.683594,-2.57031 -1.895833,-1.71355 -2.84375,-4.02865 -2.84375,-6.94532 0,-3.00781 1.084636,-5.34114 3.253907,-7 2.169271,-1.65885 5.231771,-2.48828 9.1875,-2.48828 l 7.054687,0 0,-1.99609 c 0,-2.20573 -0.674479,-3.91015 -2.023437,-5.11328 -1.330729,-1.22135 -3.208334,-1.83203 -5.632813,-1.83203 -2.005208,0 -3.60026,0.45573 -4.785156,1.36718 -1.184896,0.91146 -1.923177,2.26042 -2.214844,4.04688 l -2.597656,0 0,-5.87891 c 1.75,-0.74739 3.445312,-1.30338 5.085937,-1.66797 1.658855,-0.38281 3.272136,-0.57421 4.839844,-0.57421 4.028646,0 7.091146,1.0026 9.1875,3.00781 2.114583,1.98698 3.171875,4.88542 3.171875,8.69531 z"/>
            <path
                    sodipodi:nodetypes="ccscsccccccssscsccccccscscscccccccccccsscc"
                    inkscape:connector-curvature="0"
                    id="path3169"
                    d="m 120.76172,-143.40625 c 0.96615,-2.13281 2.19662,-3.73698 3.69141,-4.8125 1.51302,-1.09375 3.27213,-1.64062 5.27734,-1.64062 3.04427,0 5.3138,0.94792 6.80859,2.84375 1.49479,1.8776 2.24219,4.72135 2.24219,8.53125 l 0,15.58593 4.53906,0 0,2.89844 -13.94531,0 0,-2.89844 4.375,0 0,-15.01172 c 0,-2.97135 -0.4375,-5.08594 -1.3125,-6.34375 -0.875,-1.25781 -2.32422,-1.88671 -4.34766,-1.88671 -2.24219,0 -3.95573,0.84765 -5.14062,2.54296 -1.16667,1.69531 -1.75,4.16537 -1.75,7.41016 l 0,13.28906 4.375,0 0,2.89844 -13.78125,0 0,-2.89844 4.375,0 0,-15.20312 c 0,-2.89844 -0.4375,-4.95834 -1.3125,-6.17969 -0.875,-1.23958 -2.32422,-1.85937 -4.34766,-1.85937 -2.24219,0 -3.95573,0.84765 -5.14062,2.54296 -1.16667,1.69531 -1.75,4.16537 -1.75,7.41016 l 0,13.28906 4.375,0 0,2.89844 -13.945315,0 0,-2.89844 4.539062,0 0,-23.29687 -4.8125,0 0,-2.8711 9.843753,0 0,5.16797 c 0.92969,-1.93229 2.11458,-3.40885 3.55469,-4.42968 1.4401,-1.02083 3.07161,-1.53125 4.89453,-1.53125 2.26041,0 4.14713,0.5651 5.66015,1.69531 1.51302,1.11198 2.52474,2.69792 3.03516,4.75781 z"/>
            <path
                    sodipodi:nodetypes="sscscscscsccccccssscsccccccccc"
                    inkscape:connector-curvature="0"
                    id="path3171"
                    d="m 156.39062,-135.96875 0,2.87109 c 0,3.5 0.66537,6.17057 1.9961,8.01172 1.34896,1.82292 3.29948,2.73438 5.85156,2.73438 2.57031,0 4.51172,-1.02995 5.82422,-3.08985 1.33073,-2.05989 1.99609,-5.09505 1.99609,-9.10546 0,-4.02865 -0.66536,-7.0638 -1.99609,-9.10547 -1.3125,-2.04167 -3.25391,-3.0625 -5.82422,-3.0625 -2.55208,0 -4.5026,0.92057 -5.85156,2.76172 -1.33073,1.84114 -1.9961,4.5026 -1.9961,7.98437 z m -5.03125,-10.17187 -4.83984,0 0,-2.92579 9.87109,0 0,4.53907 c 0.98438,-1.82292 2.23308,-3.16276 3.7461,-4.01953 1.53125,-0.875 3.41796,-1.3125 5.66015,-1.3125 3.57292,0 6.48959,1.41276 8.75,4.23828 2.26042,2.82552 3.39063,6.51693 3.39063,11.07422 0,4.55729 -1.13021,8.25781 -3.39063,11.10156 -2.26041,2.82552 -5.17708,4.23828 -8.75,4.23828 -2.24219,0 -4.1289,-0.42839 -5.66015,-1.28516 -1.51302,-0.875 -2.76172,-2.22396 -3.7461,-4.04687 l 0,13.26172 4.75782,0 0,2.92578 -14.62891,0 0,-2.92578 4.83984,0 z"/>
            <path
                    sodipodi:nodetypes="ccccccccccc"
                    inkscape:connector-curvature="0"
                    id="path3173"
                    d="m 192.26562,-122.89844 4.75782,0 0,2.89844 -14.62891,0 0,-2.89844 4.83984,0 0,-36.75 -4.83984,0 0,-2.89843 9.87109,0 z"/>
            <path
                    sodipodi:nodetypes="ccscsccccscsssccccsscc"
                    inkscape:connector-curvature="0"
                    id="path3175"
                    d="m 229.07031,-134 -21.68359,0 0,0.21875 c 0,3.91927 0.73828,6.88151 2.21484,8.88672 1.47657,1.98698 3.65495,2.98047 6.53516,2.98047 2.20573,0 4.01041,-0.57422 5.41406,-1.72266 1.42187,-1.16667 2.41536,-2.88932 2.98047,-5.16797 l 4.04687,0 c -0.80208,3.19011 -2.28776,5.58724 -4.45703,7.19141 -2.15104,1.60417 -4.98567,2.40625 -8.5039,2.40625 -4.2474,0 -7.66537,-1.39453 -10.25391,-4.1836 -2.57031,-2.80729 -3.85547,-6.52603 -3.85547,-11.15624 0,-4.59375 1.26693,-8.29428 3.80078,-11.10157 2.53385,-2.80729 5.86068,-4.21093 9.98047,-4.21093 4.39323,0 7.76563,1.35807 10.11719,4.07421 2.35156,2.69792 3.57291,6.62631 3.66406,11.78516 z m -5.93359,-2.89844 c -0.10937,-3.39062 -0.82943,-5.9427 -2.16016,-7.65625 -1.3125,-1.73177 -3.20833,-2.59765 -5.6875,-2.59765 -2.3151,0 -4.13802,0.86588 -5.46875,2.59765 -1.33073,1.73177 -2.14192,4.28386 -2.43359,7.65625 z"/>
            <path
                    sodipodi:nodetypes="ccccccccccccccccccccccccccccccccccccccccccccccccccccccccccccccccc"
                    inkscape:connector-curvature="0"
                    id="path3177"
                    d="m 260.26953,-120 0,-0.72461 0,-0.72461 0,-0.72461 0,-0.72461 1.30566,0 1.30567,0 1.30566,0 1.30567,0 0,-8.66797 0,-8.66796 0,-8.66797 0,-8.66797 -3.00098,0 -3.00098,0 -3.00097,0 -3.00098,0 0,1.59277 0,1.59277 0,1.59278 0,1.59277 -0.84082,0 -0.84082,0 -0.84082,0 -0.84082,0 0,-2.40625 0,-2.40625 0,-2.40625 0,-2.40625 9.06445,0 9.06446,0 9.06445,0 9.06445,0 0,2.40625 0,2.40625 0,2.40625 0,2.40625 -0.84082,0 -0.84082,0 -0.84082,0 -0.84082,0 0,-1.59277 0,-1.59278 0,-1.59277 0,-1.59277 -3.00098,0 -3.00097,0 -3.00098,0 -3.00098,0 0,8.66797 0,8.66797 0,8.66796 0,8.66797 1.30566,0 1.30567,0 1.30567,0 1.30566,0 0,0.72461 0,0.72461 0,0.72461 0,0.72461 -3.99219,0 -3.99218,0 -3.99219,0 z"/>
            <path
                    sodipodi:nodetypes="ccccccccsssscssssssscssscccccssscssssssscssssssssssssssscsssccssscsssssssssssccccc"
                    inkscape:connector-curvature="0"
                    id="path3179"
                    d="m 312.96094,-134 -5.4209,0 -5.4209,0 -5.4209,0 -5.4209,0 0,0.0547 0,0.0547 0,0.0547 0,0.0547 c 0,0.97982 0.0461,1.89982 0.13843,2.76001 0.0923,0.86019 0.23071,1.66056 0.41528,2.40113 0.18457,0.74056 0.41529,1.4213 0.69214,2.04223 0.27686,0.62093 0.59986,1.18205 0.969,1.68335 0.36914,0.49674 0.78214,0.9314 1.23901,1.30396 0.45687,0.37255 0.9576,0.68302 1.5022,0.93139 0.54459,0.24838 1.13305,0.43465 1.76538,0.55884 0.63232,0.12419 1.30851,0.18628 2.02856,0.18628 0.55143,0 1.0778,-0.0359 1.5791,-0.10767 0.50131,-0.0718 0.97754,-0.17944 1.42872,-0.323 0.45117,-0.14355 0.87728,-0.32299 1.27832,-0.53833 0.40104,-0.21533 0.77702,-0.46655 1.12793,-0.75366 0.35547,-0.29167 0.68416,-0.61808 0.98608,-0.97925 0.30192,-0.36116 0.57707,-0.75708 0.82544,-1.18774 0.24837,-0.43067 0.46997,-0.89608 0.66479,-1.39624 0.19483,-0.50017 0.36287,-1.03508 0.50415,-1.60474 l 1.01172,0 1.01172,0 1.01172,0 1.01172,0 c -0.20052,0.79753 -0.44377,1.54549 -0.72974,2.2439 -0.28597,0.6984 -0.61466,1.34725 -0.98608,1.94653 -0.37142,0.59929 -0.78557,1.14901 -1.24243,1.64917 -0.45687,0.50017 -0.95646,0.95077 -1.49878,1.35181 -0.53776,0.40104 -1.11824,0.75195 -1.74145,1.05273 -0.62321,0.30079 -1.28915,0.55144 -1.99781,0.75196 -0.70866,0.20052 -1.46004,0.35091 -2.25415,0.45117 -0.79411,0.10026 -1.63094,0.15039 -2.5105,0.15039 -1.06185,0 -2.07186,-0.0872 -3.03003,-0.26148 -0.95817,-0.17431 -1.8645,-0.43579 -2.71899,-0.78442 -0.85449,-0.34863 -1.65714,-0.78442 -2.40796,-1.30737 -0.75081,-0.52295 -1.44979,-1.13306 -2.09692,-1.83033 -0.64258,-0.70182 -1.20483,-1.46061 -1.68677,-2.27636 -0.48193,-0.81576 -0.88354,-1.68848 -1.20483,-2.61816 -0.32129,-0.92969 -0.56226,-1.91634 -0.7229,-2.95996 -0.16065,-1.04362 -0.24097,-2.14421 -0.24097,-3.30176 0,-1.14844 0.0792,-2.24105 0.23755,-3.27783 0.15836,-1.03679 0.39591,-2.01775 0.71264,-2.94288 0.31674,-0.92513 0.71265,-1.79443 1.18775,-2.60791 0.4751,-0.81348 1.02938,-1.57113 1.66284,-2.27295 0.63346,-0.70182 1.31649,-1.31592 2.04907,-1.84228 0.73258,-0.52637 1.51473,-0.96501 2.34644,-1.31592 0.8317,-0.35091 1.71297,-0.61409 2.6438,-0.78955 0.93082,-0.17545 1.91121,-0.26318 2.94116,-0.26318 1.09831,0 2.13281,0.0849 3.10351,0.25464 0.97071,0.16976 1.87761,0.42439 2.7207,0.76391 0.8431,0.33952 1.6224,0.76392 2.33789,1.27319 0.7155,0.50928 1.36719,1.10343 1.95508,1.78247 0.58789,0.67448 1.10515,1.42586 1.55176,2.25415 0.44662,0.82829 0.82259,1.73348 1.12793,2.71558 0.30534,0.9821 0.54004,2.0411 0.70411,3.177 0.16406,1.13591 0.25748,2.34872 0.28027,3.63843 z m -5.9336,-2.89844 c -0.0273,-0.84765 -0.0928,-1.6429 -0.19653,-2.38574 -0.10368,-0.74284 -0.24553,-1.43327 -0.42554,-2.07129 -0.18001,-0.63802 -0.39819,-1.22363 -0.65454,-1.75683 -0.25634,-0.53321 -0.55086,-1.014 -0.88354,-1.44239 -0.32813,-0.43294 -0.69271,-0.81177 -1.09375,-1.13647 -0.40104,-0.32471 -0.83854,-0.5953 -1.3125,-0.81177 -0.47396,-0.21647 -0.98438,-0.37882 -1.53125,-0.48706 -0.54688,-0.10823 -1.13021,-0.16235 -1.75,-0.16235 -0.57878,0 -1.12679,0.0541 -1.64404,0.16235 -0.51726,0.10824 -1.00375,0.27059 -1.45948,0.48706 -0.45573,0.21647 -0.88069,0.48706 -1.2749,0.81177 -0.3942,0.3247 -0.75765,0.70353 -1.09033,1.13647 -0.33268,0.43294 -0.6329,0.91716 -0.90064,1.45264 -0.26774,0.53548 -0.50301,1.12223 -0.70581,1.76025 -0.2028,0.63802 -0.37313,1.32731 -0.51099,2.06787 -0.13786,0.74056 -0.24324,1.53239 -0.31616,2.37549 l 3.9375,0 3.9375,0 3.9375,0 z"/>
            <path
                    sodipodi:nodetypes="ccccccccccccccccccccccccccccccccccccccccccccccccccccccccccccccccccccccccccccccccccccccccccccccccccccccccccccccccc"
                    inkscape:connector-curvature="0"
                    id="path3181"
                    d="m 331.9375,-137.74609 1.52441,-2.09863 1.52442,-2.09863 1.52442,-2.09864 1.52441,-2.09863 -0.97754,0 -0.97754,0 -0.97754,0 -0.97754,0 0,-0.73145 0,-0.73145 0,-0.73144 0,-0.73145 2.7959,0 2.79589,0 2.7959,0 2.7959,0 0,0.73145 0,0.73144 0,0.73145 0,0.73145 -0.96387,0 -0.96387,0 -0.96386,0 -0.96387,0 -1.94824,2.68652 -1.94824,2.68652 -1.94824,2.68653 -1.94824,2.68652 2.26953,3.12402 2.26953,3.12403 2.26953,3.12402 2.26953,3.12402 0.95019,0 0.9502,0 0.95019,0 0.9502,0 0,0.72461 0,0.72461 0,0.72461 0,0.72461 -3.35645,0 -3.35644,0 -3.35645,0 -3.35644,0 0,-0.72461 0,-0.72461 0,-0.72461 0,-0.72461 0.92285,0 0.92285,0 0.92286,0 0.92285,0 -1.5791,-2.17383 -1.57911,-2.17382 -1.5791,-2.17383 -1.5791,-2.17383 -1.58594,2.17383 -1.58594,2.17383 -1.58593,2.17382 -1.58594,2.17383 0.94336,0 0.94336,0 0.94336,0 0.94336,0 0,0.72461 0,0.72461 0,0.72461 0,0.72461 -2.76172,0 -2.76172,0 -2.76172,0 -2.76172,0 0,-0.72461 0,-0.72461 0,-0.72461 0,-0.72461 0.96387,0 0.96386,0 0.96387,0 0.96387,0 2.00293,-2.76172 2.00293,-2.76171 2.00293,-2.76172 2.00293,-2.76172 -2.20801,-3.04883 -2.208,-3.04882 -2.20801,-3.04883 -2.20801,-3.04883 -0.89551,0 -0.8955,0 -0.89551,0 -0.89551,0 0,-0.73145 0,-0.73145 0,-0.73144 0,-0.73145 3.24707,0 3.24707,0 3.24707,0 3.24707,0 0,0.73145 0,0.73144 0,0.73145 0,0.73145 -0.86816,0 -0.86817,0 -0.86816,0 -0.86817,0 1.52442,2.09863 1.52441,2.09864 1.52442,2.09863 z"/>
            <path
                    sodipodi:nodetypes="ccccccccccccccccccccccccccccccccccccccccsssssssssssscssscccccssssssssssscsssscccc"
                    inkscape:connector-curvature="0"
                    id="path3183"
                    d="m 353.18359,-146.14062 -1.10742,0 -1.10742,0 -1.10742,0 -1.10742,0 0,-0.73145 0,-0.73145 0,-0.73144 0,-0.73145 1.10742,0 1.10742,0 1.10742,0 1.10742,0 0,-2.25586 0,-2.25585 0,-2.25586 0,-2.25586 1.26465,0 1.26465,0 1.26465,0 1.26465,0 0,2.25586 0,2.25586 0,2.25585 0,2.25586 2.36523,0 2.36524,0 2.36523,0 2.36523,0 0,0.73145 0,0.73144 0,0.73145 0,0.73145 -2.36523,0 -2.36523,0 -2.36524,0 -2.36523,0 0,4.61426 0,4.61426 0,4.61425 0,4.61426 c 0,0.61523 0.0148,1.17521 0.0444,1.67993 0.0296,0.50472 0.0741,0.95418 0.1333,1.34838 0.0593,0.39421 0.1333,0.73316 0.22217,1.01685 0.0889,0.28369 0.19254,0.51212 0.31103,0.6853 0.11849,0.17318 0.26204,0.32471 0.43066,0.45459 0.16862,0.12989 0.36231,0.23812 0.58106,0.32471 0.21875,0.0866 0.46256,0.15153 0.73144,0.19483 0.26888,0.0433 0.56283,0.0649 0.88184,0.0649 0.32813,0 0.63403,-0.0239 0.91773,-0.0718 0.28369,-0.0479 0.54516,-0.11963 0.78442,-0.21533 0.23926,-0.0957 0.4563,-0.21533 0.65112,-0.35889 0.19483,-0.14355 0.36744,-0.31103 0.51783,-0.50244 0.15039,-0.19596 0.28312,-0.42155 0.39819,-0.67676 0.11507,-0.25521 0.21248,-0.54004 0.29224,-0.85449 0.0797,-0.31445 0.14184,-0.65853 0.18628,-1.03223 0.0444,-0.3737 0.0712,-0.77702 0.0803,-1.20996 l 0.95019,0 0.9502,0 0.9502,0 0.95019,0 c -0.0365,0.66081 -0.10881,1.27718 -0.21704,1.84912 -0.10824,0.57194 -0.25236,1.09945 -0.43238,1.58252 -0.18001,0.48308 -0.39591,0.92172 -0.6477,1.31592 -0.25179,0.39421 -0.53947,0.74398 -0.86304,1.04932 -0.32357,0.30534 -0.68929,0.57251 -1.09717,0.80151 -0.40787,0.22901 -0.85791,0.41984 -1.35009,0.57251 -0.49219,0.15267 -1.02653,0.26717 -1.60303,0.34351 -0.5765,0.0763 -1.19515,0.1145 -1.85596,0.1145 -0.72461,0 -1.39624,-0.0399 -2.01489,-0.11963 -0.61865,-0.0797 -1.18433,-0.19938 -1.69702,-0.35888 -0.5127,-0.15951 -0.97241,-0.35889 -1.37915,-0.59815 -0.40674,-0.23926 -0.7605,-0.51839 -1.06128,-0.8374 -0.30078,-0.32357 -0.56397,-0.70296 -0.78955,-1.13819 -0.22559,-0.43522 -0.41358,-0.92627 -0.56397,-1.47314 -0.15039,-0.54688 -0.26318,-1.14958 -0.33838,-1.80811 -0.0752,-0.65852 -0.11279,-1.37288 -0.11279,-2.14306 l 0,-4.61426 0,-4.61425 0,-4.61426 z"/>
            <path
                    sodipodi:nodetypes="sssscssssssscssssssscssssssscsssssssssssssssssssssssssssssssscssss"
                    inkscape:connector-curvature="0"
                    id="path3185"
                    d="m 375.49609,-122.84375 c 0,-0.25521 0.0217,-0.50073 0.0649,-0.73657 0.0433,-0.23584 0.10824,-0.462 0.19483,-0.67847 0.0866,-0.21647 0.19482,-0.42326 0.32471,-0.62036 0.12988,-0.19711 0.28141,-0.38453 0.45459,-0.56226 0.17773,-0.17773 0.36515,-0.33325 0.56225,-0.46655 0.19711,-0.1333 0.40389,-0.24438 0.62036,-0.33325 0.21647,-0.0889 0.44263,-0.15552 0.67847,-0.19995 0.23584,-0.0444 0.48136,-0.0667 0.73657,-0.0667 0.25521,0 0.50016,0.0222 0.73486,0.0667 0.2347,0.0444 0.45915,0.11108 0.67334,0.19995 0.21419,0.0889 0.41813,0.19995 0.61182,0.33325 0.19368,0.1333 0.37711,0.28882 0.55029,0.46655 0.17773,0.17773 0.33325,0.36515 0.46655,0.56226 0.13331,0.1971 0.24439,0.40389 0.33326,0.62036 0.0889,0.21647 0.15552,0.44263 0.19995,0.67847 0.0444,0.23584 0.0666,0.48136 0.0666,0.73657 0,0.25521 -0.0216,0.50073 -0.0649,0.73657 -0.0433,0.23584 -0.10824,0.462 -0.19483,0.67847 -0.0866,0.21647 -0.19482,0.42326 -0.3247,0.62036 -0.12988,0.19711 -0.28141,0.38453 -0.45459,0.56226 -0.17318,0.17318 -0.35718,0.32471 -0.552,0.45459 -0.19483,0.12988 -0.40047,0.23812 -0.61695,0.32471 -0.21647,0.0866 -0.44376,0.15152 -0.68188,0.19482 -0.23812,0.0433 -0.48706,0.0649 -0.74683,0.0649 -0.25977,0 -0.50871,-0.0216 -0.74682,-0.0649 -0.23812,-0.0433 -0.46542,-0.10824 -0.68189,-0.19482 -0.21647,-0.0866 -0.42212,-0.19483 -0.61694,-0.32471 -0.19482,-0.12988 -0.37882,-0.28141 -0.552,-0.45459 -0.17318,-0.17773 -0.32471,-0.36515 -0.45459,-0.56226 -0.12989,-0.1971 -0.23812,-0.40389 -0.32471,-0.62036 -0.0866,-0.21647 -0.15153,-0.44263 -0.19483,-0.67847 -0.0433,-0.23584 -0.0649,-0.48136 -0.0649,-0.73657 z m 0,-17.82812 c 0,-0.25521 0.0217,-0.50016 0.0649,-0.73486 0.0433,-0.2347 0.10824,-0.45915 0.19483,-0.67335 0.0866,-0.21419 0.19482,-0.41813 0.32471,-0.61181 0.12988,-0.19369 0.28141,-0.37712 0.45459,-0.5503 0.17773,-0.17773 0.36515,-0.33325 0.56225,-0.46655 0.19711,-0.1333 0.40389,-0.24438 0.62036,-0.33325 0.21647,-0.0889 0.44263,-0.15552 0.67847,-0.19995 0.23584,-0.0444 0.48136,-0.0667 0.73657,-0.0667 0.25977,0 0.50871,0.0217 0.74683,0.0649 0.23812,0.0433 0.46541,0.10824 0.68188,0.19483 0.21648,0.0866 0.42212,0.19482 0.61695,0.3247 0.19482,0.12988 0.37882,0.28141 0.552,0.45459 0.17318,0.17318 0.32471,0.35718 0.45459,0.552 0.12988,0.19483 0.23812,0.40047 0.32471,0.61694 0.0866,0.21648 0.15152,0.44377 0.19482,0.68189 0.0433,0.23812 0.0649,0.48706 0.0649,0.74683 0,0.25977 -0.0216,0.50871 -0.0649,0.74682 -0.0433,0.23812 -0.10824,0.46542 -0.19483,0.68189 -0.0866,0.21647 -0.19482,0.42212 -0.3247,0.61694 -0.12988,0.19482 -0.28141,0.37882 -0.45459,0.552 -0.17318,0.17318 -0.35718,0.32471 -0.552,0.45459 -0.19483,0.12988 -0.40047,0.23812 -0.61695,0.3247 -0.21647,0.0866 -0.44376,0.15153 -0.68188,0.19483 -0.23812,0.0433 -0.48706,0.0649 -0.74683,0.0649 -0.25521,0 -0.50073,-0.0217 -0.73657,-0.0649 -0.23584,-0.0433 -0.462,-0.10824 -0.67847,-0.19483 -0.21647,-0.0866 -0.42325,-0.19482 -0.62036,-0.3247 -0.1971,-0.12988 -0.38452,-0.28141 -0.56225,-0.45459 -0.17318,-0.17773 -0.32471,-0.36515 -0.45459,-0.56225 -0.12989,-0.19711 -0.23812,-0.40389 -0.32471,-0.62036 -0.0866,-0.21647 -0.15153,-0.44263 -0.19483,-0.67847 -0.0433,-0.23584 -0.0649,-0.48136 -0.0649,-0.73657 z"/>
            <path
                    sodipodi:nodetypes="sssscssssssscssssssscssssssscsssssssscssssssscssssssscssssssscssssssssssssssscssscssscssss"
                    inkscape:connector-curvature="0"
                    id="path3187"
                    d="m 429.39062,-122.13281 c 1.11654,0 2.16471,-0.0957 3.14453,-0.28711 0.97982,-0.19141 1.89128,-0.47852 2.73438,-0.86133 0.8431,-0.38281 1.61784,-0.86133 2.32422,-1.43554 0.70638,-0.57422 1.3444,-1.24415 1.91406,-2.00977 0.56966,-0.77018 1.06812,-1.63208 1.49536,-2.5857 0.42725,-0.95361 0.78329,-1.99894 1.06812,-3.13598 0.28483,-1.13705 0.49845,-2.36581 0.64087,-3.68628 0.14241,-1.32048 0.21362,-2.73266 0.21362,-4.23657 0,-1.50846 -0.0712,-2.92407 -0.21362,-4.24683 -0.14242,-1.32275 -0.35604,-2.55265 -0.64087,-3.68969 -0.28483,-1.13705 -0.64087,-2.18124 -1.06812,-3.13257 -0.42724,-0.95134 -0.9257,-1.80982 -1.49536,-2.57544 -0.56966,-0.77018 -1.20768,-1.44409 -1.91406,-2.02173 -0.70638,-0.57764 -1.48112,-1.059 -2.32422,-1.44409 -0.8431,-0.3851 -1.75456,-0.67392 -2.73438,-0.86646 -0.97982,-0.19255 -2.02799,-0.28882 -3.14453,-0.28882 -1.12109,0 -2.17326,0.0963 -3.15649,0.28882 -0.98324,0.19254 -1.89754,0.48136 -2.74292,0.86646 -0.84538,0.38509 -1.62183,0.86645 -2.32935,1.44409 -0.70752,0.57764 -1.34611,1.25155 -1.91577,2.02173 -0.56966,0.76562 -1.06812,1.6241 -1.49536,2.57544 -0.42725,0.95133 -0.78329,1.99552 -1.06812,3.13257 -0.28483,1.13704 -0.49845,2.36694 -0.64087,3.68969 -0.14241,1.32276 -0.21362,2.73837 -0.21362,4.24683 0,1.50391 0.0712,2.91609 0.21362,4.23657 0.14242,1.32047 0.35604,2.54923 0.64087,3.68628 0.28483,1.13704 0.64087,2.18237 1.06812,3.13598 0.42724,0.95362 0.9257,1.81552 1.49536,2.5857 0.56966,0.76562 1.20825,1.43555 1.91577,2.00977 0.70752,0.57421 1.48397,1.05273 2.32935,1.43554 0.84538,0.38281 1.75968,0.66992 2.74292,0.86133 0.98323,0.19141 2.0354,0.28711 3.15649,0.28711 z m 0,2.92578 c -0.69271,0 -1.37174,-0.0285 -2.03711,-0.0854 -0.66536,-0.057 -1.31706,-0.14241 -1.95508,-0.25635 -0.63802,-0.11393 -1.26237,-0.25635 -1.87304,-0.42724 -0.61068,-0.1709 -1.20769,-0.37028 -1.79102,-0.59815 -0.57878,-0.22786 -1.14046,-0.4825 -1.68506,-0.76392 -0.54459,-0.28141 -1.0721,-0.5896 -1.58251,-0.92456 -0.51042,-0.33496 -1.00375,-0.69669 -1.47999,-1.0852 -0.47623,-0.38851 -0.93538,-0.80379 -1.37744,-1.24585 -0.51042,-0.51042 -0.98836,-1.03792 -1.43384,-1.58252 -0.44547,-0.54459 -0.85848,-1.10628 -1.23901,-1.68506 -0.38053,-0.57877 -0.7286,-1.17464 -1.04419,-1.78759 -0.31559,-0.61296 -0.59871,-1.24301 -0.84936,-1.89014 -0.24609,-0.64713 -0.46143,-1.31649 -0.646,-2.00806 -0.18457,-0.69156 -0.33837,-1.40535 -0.46142,-2.14135 -0.12305,-0.736 -0.21533,-1.49422 -0.27685,-2.27466 -0.0615,-0.78044 -0.0923,-1.58309 -0.0923,-2.40796 0,-0.82487 0.0308,-1.62752 0.0923,-2.40796 0.0615,-0.78044 0.15381,-1.53866 0.27686,-2.27466 0.12305,-0.736 0.27686,-1.44979 0.46143,-2.14135 0.18456,-0.69157 0.3999,-1.36093 0.64599,-2.00806 0.25065,-0.65169 0.53377,-1.28573 0.84936,-1.9021 0.31559,-0.61638 0.66366,-1.21509 1.04419,-1.79614 0.38053,-0.58106 0.79354,-1.14446 1.23901,-1.69019 0.44548,-0.54574 0.92342,-1.07381 1.43384,-1.58423 0.44661,-0.44661 0.90918,-0.86532 1.3877,-1.2561 0.47851,-0.39079 0.97298,-0.75367 1.48339,-1.08863 0.51042,-0.33496 1.03679,-0.64201 1.57911,-0.92114 0.54231,-0.27913 1.10058,-0.53035 1.6748,-0.75366 0.57422,-0.22787 1.16439,-0.42725 1.77051,-0.59815 0.60612,-0.17089 1.22819,-0.31331 1.86621,-0.42724 0.63802,-0.11393 1.29199,-0.19938 1.96192,-0.25635 0.66992,-0.057 1.35579,-0.0855 2.05761,-0.0855 1.48112,0 2.89103,0.12134 4.22974,0.36401 1.3387,0.24268 2.6062,0.60669 3.80249,1.09205 1.19629,0.48535 2.32137,1.09204 3.37524,1.82006 1.05388,0.72803 2.03654,1.5774 2.948,2.5481 0.91146,0.9707 1.70898,2.01888 2.39258,3.14453 0.68359,1.12565 1.25325,2.32878 1.70898,3.60938 0.45573,1.2806 0.79753,2.63867 1.02539,4.07422 0.22787,1.43554 0.3418,2.94856 0.3418,4.53906 0,0.81575 -0.0313,1.61157 -0.094,2.38745 -0.0627,0.77588 -0.15666,1.53182 -0.28198,2.26782 -0.12533,0.73601 -0.28199,1.45207 -0.46997,2.1482 -0.18799,0.69612 -0.40731,1.37231 -0.65796,2.02856 -0.25065,0.65169 -0.53377,1.28515 -0.84937,1.90039 -0.31559,0.61523 -0.66365,1.21224 -1.04419,1.79101 -0.38053,0.57878 -0.79354,1.13933 -1.23901,1.68164 -0.44548,0.54232 -0.92342,1.06641 -1.43384,1.57227 -0.44661,0.44662 -0.90918,0.86589 -1.3877,1.25781 -0.47851,0.39193 -0.97298,0.75651 -1.48339,1.09375 -0.51042,0.33724 -1.03679,0.64714 -1.57911,0.92969 -0.54231,0.28255 -1.10058,0.53776 -1.6748,0.76562 -0.57422,0.22331 -1.16382,0.4187 -1.7688,0.58618 -0.60498,0.16749 -1.22534,0.30705 -1.86108,0.41871 -0.63574,0.11165 -1.28687,0.19539 -1.95337,0.25122 -0.66651,0.0558 -1.34839,0.0837 -2.04566,0.0837 z"/>
            <path
                    sodipodi:nodetypes="ccccccccccccccccccccccccccccccccccccccccccccccccsssscssssssssssscccccccccssscssssssscsssscccccccccccsssssssssssssssscccccccccssscsssssssssssscccccccccccccccccccccccccccccccccccccccccccccccccccccccccccccccccccccccc"
                    inkscape:connector-curvature="0"
                    id="path3189"
                    d="m 479.51172,-146.14062 -3.80762,0 -3.80762,0 -3.80761,0 -3.80762,0 0,5.81054 0,5.81055 0,5.81055 0,5.81054 1.61328,0 1.61328,0 1.61328,0 1.61328,0 0,0.72461 0,0.72461 0,0.72461 0,0.72461 -4.07422,0 -4.07422,0 -4.07421,0 -4.07422,0 0,-0.72461 0,-0.72461 0,-0.72461 0,-0.72461 1.20312,0 1.20313,0 1.20312,0 1.20313,0 0,-5.81054 0,-5.81055 0,-5.81055 0,-5.81054 -1.20313,0 -1.20312,0 -1.20313,0 -1.20312,0 0,-0.73145 0,-0.73145 0,-0.73144 0,-0.73145 1.20312,0 1.20313,0 1.20312,0 1.20313,0 0,-0.90918 0,-0.90918 0,-0.90917 0,-0.90918 c 0,-0.8112 0.0524,-1.57284 0.15723,-2.28491 0.10481,-0.71208 0.26204,-1.3746 0.47168,-1.98755 0.20963,-0.61296 0.47167,-1.17635 0.78613,-1.69019 0.31445,-0.51383 0.68131,-0.97811 1.10058,-1.39282 0.42383,-0.41471 0.89665,-0.77759 1.41846,-1.08862 0.52181,-0.31104 1.09261,-0.57023 1.7124,-0.77759 0.61979,-0.20736 1.28857,-0.36287 2.00635,-0.46655 0.71777,-0.10368 1.48453,-0.15552 2.30029,-0.15552 0.30534,0 0.61068,0.007 0.91602,0.0205 0.30534,0.0137 0.61068,0.0342 0.91602,0.0615 0.30534,0.0273 0.61068,0.0615 0.91601,0.10254 0.30534,0.041 0.61068,0.0889 0.91602,0.14355 0.30534,0.0547 0.61011,0.11678 0.91431,0.18628 0.3042,0.0695 0.60783,0.1464 0.91089,0.23071 0.30306,0.0843 0.60555,0.17603 0.90747,0.27515 0.30192,0.0991 0.60327,0.20565 0.90405,0.31958 l 0,1.38086 0,1.38086 0,1.38086 0,1.38086 -0.66309,0 -0.66309,0 -0.66308,0 -0.66309,0 c -0.005,-0.3418 -0.0325,-0.66309 -0.0837,-0.96387 -0.0513,-0.30078 -0.12589,-0.58105 -0.22387,-0.84082 -0.098,-0.25976 -0.21933,-0.49902 -0.36402,-0.71777 -0.1447,-0.21875 -0.31276,-0.417 -0.50417,-0.59473 -0.18685,-0.17774 -0.39534,-0.33325 -0.62549,-0.46655 -0.23014,-0.13331 -0.48193,-0.24439 -0.75537,-0.33326 -0.27343,-0.0889 -0.56852,-0.15552 -0.88525,-0.19995 -0.31673,-0.0444 -0.65511,-0.0666 -1.01514,-0.0666 -0.4694,0 -0.90405,0.0325 -1.30396,0.0974 -0.3999,0.0649 -0.76505,0.16236 -1.09545,0.29224 -0.33041,0.12988 -0.62606,0.29224 -0.88697,0.48706 -0.2609,0.19483 -0.48705,0.42212 -0.67846,0.68189 -0.19141,0.25521 -0.35889,0.56112 -0.50244,0.91772 -0.14356,0.35661 -0.26319,0.76392 -0.35889,1.22193 -0.0957,0.45801 -0.16748,0.96671 -0.21533,1.52612 -0.0478,0.55941 -0.0718,1.16951 -0.0718,1.83032 l 0,0.93652 0,0.93653 0,0.93652 0,0.93652 3.80762,0 3.80762,0 3.80761,0 3.80762,0 0,-0.65625 0,-0.65625 0,-0.65625 0,-0.65625 c 0,-0.89779 0.0666,-1.74031 0.19995,-2.52758 0.1333,-0.78728 0.33325,-1.51929 0.59986,-2.19605 0.2666,-0.67675 0.59985,-1.29826 0.99975,-1.8645 0.3999,-0.56624 0.86646,-1.07723 1.39966,-1.53296 0.5332,-0.45573 1.13021,-0.85449 1.79101,-1.19629 0.66081,-0.34179 1.38542,-0.62663 2.17383,-0.85449 0.78841,-0.22786 1.64063,-0.39876 2.55664,-0.51269 0.91602,-0.11393 1.89583,-0.1709 2.93945,-0.1709 0.39649,0 0.79525,0.007 1.19629,0.0222 0.40104,0.0148 0.80436,0.037 1.20996,0.0667 0.4056,0.0296 0.81348,0.0666 1.22364,0.11108 0.41015,0.0444 0.82259,0.0963 1.2373,0.15551 0.41471,0.0592 0.82829,0.12646 1.24072,0.20166 0.41244,0.0752 0.82373,0.15836 1.23389,0.24951 0.41016,0.0911 0.81917,0.19027 1.22705,0.29736 0.40788,0.1071 0.81462,0.22217 1.22022,0.34522 l 0,1.4834 0,1.4834 0,1.4834 0,1.4834 -0.64258,-0.007 -0.64258,-0.007 -0.64258,-0.007 -0.64258,-0.007 c -0.0137,-0.39193 -0.0604,-0.75879 -0.14012,-1.10058 -0.0797,-0.3418 -0.19255,-0.65853 -0.33838,-0.9502 -0.14583,-0.29167 -0.32471,-0.55827 -0.53662,-0.7998 -0.21192,-0.24154 -0.45688,-0.45801 -0.73488,-0.64942 -0.27799,-0.19596 -0.59131,-0.36743 -0.93994,-0.5144 -0.34863,-0.14698 -0.73258,-0.26945 -1.15185,-0.36743 -0.41927,-0.098 -0.87386,-0.17147 -1.36377,-0.22046 -0.48991,-0.049 -1.01514,-0.0735 -1.57569,-0.0735 -0.69726,0 -1.34782,0.0404 -1.95166,0.12134 -0.60384,0.0809 -1.16097,0.20223 -1.67138,0.36401 -0.51042,0.16179 -0.97413,0.36402 -1.39112,0.60669 -0.41699,0.24268 -0.78727,0.5258 -1.11084,0.84937 -0.32357,0.32357 -0.60669,0.69385 -0.84936,1.11084 -0.24268,0.41699 -0.44491,0.8807 -0.60669,1.39111 -0.16178,0.51042 -0.28312,1.06755 -0.36401,1.67139 -0.0809,0.60384 -0.12134,1.2544 -0.12134,1.95166 l 0,0.68359 0,0.6836 0,0.68359 0,0.68359 4.86035,0 4.86035,0 4.86035,0 4.86035,0 0,6.54199 0,6.542 0,6.54199 0,6.54199 1.18946,0 1.18945,0 1.18946,0 1.18945,0 0,0.72461 0,0.72461 0,0.72461 0,0.72461 -3.65723,0 -3.65722,0 -3.65723,0 -3.65723,0 0,-0.72461 0,-0.72461 0,-0.72461 0,-0.72461 1.20996,0 1.20996,0 1.20996,0 1.20996,0 0,-5.81054 0,-5.81055 0,-5.81054 0,-5.81055 -3.60254,0 -3.60253,0 -3.60254,0 -3.60254,0 0,5.81055 0,5.81054 0,5.81055 0,5.81054 1.18945,0 1.18946,0 1.18945,0 1.18945,0 0,0.72461 0,0.72461 0,0.72461 0,0.72461 -3.65039,0 -3.65039,0 -3.65039,0 -3.65039,0 0,-0.72461 0,-0.72461 0,-0.72461 0,-0.72461 1.20313,0 1.20312,0 1.20313,0 1.20312,0 0,-5.81054 0,-5.81055 0,-5.81054 0,-5.81055 0,-1e-5 0,-1e-5 0,-2e-5 z"/>
            <path
                    sodipodi:nodetypes="cssssssssssscssssssscssssssscssscccccccccssscssssssscssssssscsssssssssssccccc"
                    inkscape:connector-curvature="0"
                    id="path3191"
                    d="m 538.90234,-128.72266 c -0.17773,0.77474 -0.39648,1.50334 -0.65625,2.18579 -0.25976,0.68246 -0.56054,1.31877 -0.90234,1.90894 -0.3418,0.59017 -0.72461,1.13419 -1.14844,1.63208 -0.42383,0.49788 -0.88867,0.94962 -1.39453,1.35522 -0.50586,0.4056 -1.04875,0.7605 -1.62867,1.0647 -0.57991,0.3042 -1.19685,0.5577 -1.85083,0.7605 -0.65397,0.2028 -1.34497,0.3549 -2.07299,0.4563 -0.72803,0.1014 -1.49309,0.1521 -2.29517,0.1521 -1.05729,0 -2.06274,-0.0872 -3.01636,-0.26147 -0.95361,-0.17432 -1.85538,-0.4358 -2.70532,-0.78443 -0.84993,-0.34863 -1.64803,-0.78442 -2.39428,-1.30737 -0.74626,-0.52295 -1.44067,-1.13306 -2.08325,-1.83033 -0.64258,-0.70182 -1.20483,-1.46061 -1.68677,-2.27636 -0.48193,-0.81576 -0.88354,-1.68848 -1.20483,-2.61816 -0.32129,-0.92969 -0.56226,-1.91634 -0.7229,-2.95996 -0.16065,-1.04362 -0.24097,-2.14421 -0.24097,-3.30176 0,-1.16211 0.0803,-2.26554 0.24097,-3.3103 0.16064,-1.04476 0.40161,-2.03085 0.7229,-2.95826 0.32129,-0.92741 0.7229,-1.79614 1.20483,-2.6062 0.48194,-0.81006 1.04419,-1.56144 1.68677,-2.25415 0.64258,-0.69726 1.33699,-1.30737 2.08325,-1.83032 0.74625,-0.52295 1.54435,-0.95874 2.39428,-1.30737 0.84994,-0.34863 1.75171,-0.61011 2.70532,-0.78443 0.95362,-0.17431 1.95907,-0.26147 3.01636,-0.26147 0.46029,0 0.92,0.0137 1.37915,0.041 0.45915,0.0273 0.91773,0.0684 1.37573,0.12304 0.45801,0.0547 0.91545,0.12305 1.37232,0.20508 0.45687,0.082 0.91317,0.17773 1.3689,0.28711 0.45573,0.10482 0.91203,0.22388 1.36889,0.35717 0.45687,0.13331 0.91431,0.28085 1.37232,0.44263 0.458,0.16178 0.91658,0.33781 1.37573,0.52808 0.45915,0.19026 0.91886,0.39477 1.37915,0.61352 l 0,1.85938 0,1.85937 0,1.85938 0,1.85937 -0.73145,0 -0.73144,0 -0.73145,0 -0.73144,0 c -0.0957,-0.63802 -0.21989,-1.23275 -0.37256,-1.78418 -0.15267,-0.55143 -0.33382,-1.05957 -0.54346,-1.52441 -0.20963,-0.46484 -0.44775,-0.88639 -0.71435,-1.26465 -0.2666,-0.37825 -0.56168,-0.71321 -0.88525,-1.00488 -0.31901,-0.29167 -0.67277,-0.54687 -1.06128,-0.76562 -0.38851,-0.21875 -0.81177,-0.40105 -1.26978,-0.54688 -0.45801,-0.14583 -0.95077,-0.25521 -1.47827,-0.32812 -0.52751,-0.0729 -1.08977,-0.10938 -1.68677,-0.10938 -0.67904,0 -1.31649,0.0661 -1.91235,0.19824 -0.59587,0.13216 -1.15015,0.33041 -1.66285,0.59473 -0.51269,0.26432 -0.9838,0.59472 -1.41332,0.99121 -0.42953,0.39648 -0.81747,0.85905 -1.16382,1.38769 -0.34636,0.52409 -0.64942,1.11369 -0.90918,1.7688 -0.25977,0.65511 -0.47624,1.37573 -0.64942,2.16187 -0.17318,0.78613 -0.30306,1.63777 -0.38965,2.55493 -0.0866,0.91715 -0.12988,1.89982 -0.12988,2.948 0,1.04818 0.0427,2.03141 0.12817,2.94971 0.0854,0.91829 0.21363,1.77164 0.38452,2.56005 0.1709,0.78841 0.38453,1.51188 0.64087,2.17041 0.25635,0.65853 0.55542,1.25211 0.89722,1.78076 0.34636,0.52865 0.73486,0.99121 1.16553,1.3877 0.43066,0.39648 0.90348,0.72689 1.41846,0.99121 0.51497,0.26432 1.0721,0.46257 1.67138,0.59473 0.59929,0.13216 1.24073,0.19824 1.92432,0.19824 0.54232,0 1.05729,-0.0353 1.54492,-0.10596 0.48763,-0.0706 0.94792,-0.17659 1.38086,-0.31787 0.43295,-0.14128 0.83854,-0.31787 1.2168,-0.52979 0.37825,-0.21191 0.72916,-0.45915 1.05273,-0.7417 0.32357,-0.28255 0.6215,-0.60099 0.8938,-0.95532 0.2723,-0.35433 0.51896,-0.74455 0.73999,-1.17066 0.22103,-0.4261 0.41642,-0.8881 0.58618,-1.38598 0.16976,-0.49789 0.31389,-1.03166 0.43238,-1.60132 l 1.01172,0 1.01172,0 1.01171,0 z"/>
            <path
                    sodipodi:nodetypes="ccccccccsssscssssssscssscccccssscssssssscssssssssssssssscsssccssscsssssssssssccccc"
                    inkscape:connector-curvature="0"
                    id="path3193"
                    d="m 571.74219,-134 -5.4209,0 -5.4209,0 -5.4209,0 -5.4209,0 0,0.0547 0,0.0547 0,0.0547 0,0.0547 c 0,0.97982 0.0461,1.89982 0.13843,2.76001 0.0923,0.86019 0.23071,1.66056 0.41528,2.40113 0.18457,0.74056 0.41529,1.4213 0.69214,2.04223 0.27686,0.62093 0.59986,1.18205 0.969,1.68335 0.36914,0.49674 0.78214,0.9314 1.23901,1.30396 0.45687,0.37255 0.9576,0.68302 1.5022,0.93139 0.54459,0.24838 1.13305,0.43465 1.76538,0.55884 0.63232,0.12419 1.30851,0.18628 2.02856,0.18628 0.55143,0 1.0778,-0.0359 1.5791,-0.10767 0.50131,-0.0718 0.97754,-0.17944 1.42872,-0.323 0.45117,-0.14355 0.87728,-0.32299 1.27832,-0.53833 0.40104,-0.21533 0.77702,-0.46655 1.12793,-0.75366 0.35547,-0.29167 0.68416,-0.61808 0.98608,-0.97925 0.30192,-0.36116 0.57707,-0.75708 0.82544,-1.18774 0.24837,-0.43067 0.46997,-0.89608 0.66479,-1.39624 0.19483,-0.50017 0.36288,-1.03508 0.50415,-1.60474 l 1.01172,0 1.01172,0 1.01172,0 1.01172,0 c -0.20052,0.79753 -0.44377,1.54549 -0.72974,2.2439 -0.28597,0.6984 -0.61466,1.34725 -0.98608,1.94653 -0.37142,0.59929 -0.78557,1.14901 -1.24243,1.64917 -0.45687,0.50017 -0.95646,0.95077 -1.49878,1.35181 -0.53776,0.40104 -1.11824,0.75195 -1.74145,1.05273 -0.62321,0.30079 -1.28915,0.55144 -1.99781,0.75196 -0.70866,0.20052 -1.46004,0.35091 -2.25415,0.45117 -0.79411,0.10026 -1.63094,0.15039 -2.5105,0.15039 -1.06185,0 -2.07186,-0.0872 -3.03003,-0.26148 -0.95817,-0.17431 -1.8645,-0.43579 -2.71899,-0.78442 -0.85449,-0.34863 -1.65714,-0.78442 -2.40796,-1.30737 -0.75081,-0.52295 -1.44978,-1.13306 -2.09692,-1.83033 -0.64258,-0.70182 -1.20483,-1.46061 -1.68677,-2.27636 -0.48193,-0.81576 -0.88354,-1.68848 -1.20483,-2.61816 -0.32129,-0.92969 -0.56226,-1.91634 -0.7229,-2.95996 -0.16065,-1.04362 -0.24097,-2.14421 -0.24097,-3.30176 0,-1.14844 0.0792,-2.24105 0.23755,-3.27783 0.15836,-1.03679 0.39591,-2.01775 0.71265,-2.94288 0.31673,-0.92513 0.71264,-1.79443 1.18774,-2.60791 0.4751,-0.81348 1.02938,-1.57113 1.66284,-2.27295 0.63346,-0.70182 1.31649,-1.31592 2.04907,-1.84228 0.73258,-0.52637 1.51473,-0.96501 2.34644,-1.31592 0.8317,-0.35091 1.71297,-0.61409 2.6438,-0.78955 0.93082,-0.17545 1.91121,-0.26318 2.94116,-0.26318 1.09831,0 2.13281,0.0849 3.10351,0.25464 0.97071,0.16976 1.87761,0.42439 2.72071,0.76391 0.84309,0.33952 1.62239,0.76392 2.33788,1.27319 0.7155,0.50928 1.36719,1.10343 1.95508,1.78247 0.58789,0.67448 1.10515,1.42586 1.55176,2.25415 0.44662,0.82829 0.82259,1.73348 1.12793,2.71558 0.30534,0.9821 0.54004,2.0411 0.70411,3.177 0.16406,1.13591 0.25748,2.34872 0.28027,3.63843 z m -5.9336,-2.89844 c -0.0273,-0.84765 -0.0928,-1.6429 -0.19653,-2.38574 -0.10368,-0.74284 -0.24552,-1.43327 -0.42554,-2.07129 -0.18001,-0.63802 -0.39819,-1.22363 -0.65454,-1.75683 -0.25634,-0.53321 -0.55086,-1.014 -0.88354,-1.44239 -0.32812,-0.43294 -0.69271,-0.81177 -1.09375,-1.13647 -0.40104,-0.32471 -0.83854,-0.5953 -1.3125,-0.81177 -0.47396,-0.21647 -0.98437,-0.37882 -1.53125,-0.48706 -0.54687,-0.10823 -1.13021,-0.16235 -1.75,-0.16235 -0.57878,0 -1.12679,0.0541 -1.64404,0.16235 -0.51726,0.10824 -1.00375,0.27059 -1.45948,0.48706 -0.45573,0.21647 -0.88069,0.48706 -1.2749,0.81177 -0.3942,0.3247 -0.75765,0.70353 -1.09033,1.13647 -0.33268,0.43294 -0.6329,0.91716 -0.90064,1.45264 -0.26774,0.53548 -0.50301,1.12223 -0.70581,1.76025 -0.2028,0.63802 -0.37313,1.32731 -0.51099,2.06787 -0.13786,0.74056 -0.24324,1.53239 -0.31616,2.37549 l 3.9375,0 3.9375,0 3.9375,0 z"/>
        </g>
        <path
                inkscape:connector-curvature="0"
                id="path5751"
                d="m 20,280 0,-260 560,110 0,40 z"
                style="fill:none;stroke:#ff0000"/>
    </g>
</svg>
